<svg xmlns="http://www.w3.org/2000/svg" viewBox="0 0 500 500"><g id="freepik--background-complete--inject-171"><path d="M379.75,287.71A35.13,35.13,0,0,0,378.69,303c1.6,10.71,9.66,19.2,11.41,29.75-.22,1.26-.48,2.54-.82,3.82a.14.14,0,0,1,0,.06s0,0,0,0h0v0a.14.14,0,0,0,.09.12c.08-.15.14-.3.2-.44s.25-.53.36-.79.31-.75.45-1.14c.05,0,.09-.17.09-.22,3.93-10.84.32-22.86-1.51-33.86-1.05-6.29-.61-12.63-1.54-18.89-.23-1.5-.22-4.33-2.37-3.76C382.61,278.36,380.37,285.69,379.75,287.71Z" style="fill:#ebebeb"></path><path d="M381.34,297c-.68,13,11.34,24.43,8.55,37.45-.09.37-.18.73-.28,1.1s-.14.5-.22.75h0c0,.1-.07.2-.11.31a.14.14,0,0,1,0,.06s0,0,0,0h0v0a.14.14,0,0,0,.09.12h0a.14.14,0,0,0,.11-.08c.15-.38.28-.77.4-1.16a16.83,16.83,0,0,0,.66-2.88h0a41.63,41.63,0,0,0-.26-17.45c-1.49-7.4-3.38-14.57-4.73-22.05-.17-.93-.17-4.57-1.66-4.08C382.06,289.72,381.42,295.44,381.34,297ZM382,295c.12-.73,1.06-5.63,2.28-5.12.72.3.81,4,.93,4.53l1.29,6.05c.93,4.23,1.88,8.46,2.8,12.7a55.67,55.67,0,0,1,1.44,15.67C390.06,317.43,380.08,306.84,382,295Z" style="fill:#fff"></path><path d="M376.63,412.85c0,.18.14.41.38.27,9.87-6.36,22.19-1.18,32.41-6.86a52.46,52.46,0,0,0,11-8.77,41.74,41.74,0,0,0,6.69-8c.24-.39,1.49-2,1.29-2.81-1.57-6.09-17.38,4.21-20,5.67-10.35,5.64-19.81,10.79-28.87,18-1,.74-1.89,1.52-2.82,2.32C376.63,412.75,376.63,412.8,376.63,412.85Z" style="fill:#ebebeb"></path><path d="M376.63,412.85l1.08-.67c6.79-3.26,14.34-4.41,21.64-6.27s13.66-5,19.13-10.3c1-.95,5-4.56,3.79-6.38-1.06-1.64-5.1,1.52-6.08,2.07-7.35,4.12-14.53,8.3-22.19,11.84-4.9,2.27-9.86,4.53-14.52,7.27-1,.74-1.89,1.52-2.82,2.32C376.63,412.75,376.63,412.8,376.63,412.85Zm4.61-2.75c5.4-3,11.08-5.54,16.7-8.2q5.79-2.75,11.34-5.95c2-1.18,4-2.38,6.07-3.54,1-.58,2-1.16,3.08-1.7.51-.29,2.21-1.26,2.64-.48,1.16,2.12-10.18,12.88-24.25,15.67A88,88,0,0,0,381.24,410.1Z" style="fill:#fff"></path><path d="M393.06,394.15a.1.1,0,0,0,0,.14.11.11,0,0,0,.15,0l.61-.6c.75-.74,1.47-1.48,2.18-2.24l.38-.42c.05,0,.08,0,.11,0,7.89-8.07,19.84-10.53,26.57-19.88a45.13,45.13,0,0,0,6.33-13.88c.62-2.12,3.66-8.57,1-10.25-2.08-1.3-5.32,1.53-6.67,2.73-4.3,3.81-7.34,9.15-10.33,14s-5.61,9.6-8.4,14.41a92.55,92.55,0,0,1-8.82,12.34C395.16,391.68,394.11,392.91,393.06,394.15Z" style="fill:#ebebeb"></path><path d="M393.06,394.15a.1.1,0,0,0,0,.14c.65-.68,1.3-1.36,1.95-2l-1.19,1.41c.75-.74,1.47-1.48,2.18-2.24l1-1.2a128.14,128.14,0,0,1,14.54-12.06,26.65,26.65,0,0,0,6.56-6.5c3.3-4.74,8.43-15.89,7.44-17.58s-3,1.88-3.62,2.65c-4.59,6.26-8.32,13.07-13.26,19.09-3.32,4.05-6.69,8.07-10,12.09-.85.82-1.68,1.65-2.48,2.51C395.16,391.68,394.11,392.91,393.06,394.15Zm31.78-39.64c.87.36-.46,3.36-.8,4.15A125.47,125.47,0,0,1,418.5,370c-2.18,3.86-5.28,6.4-8.85,8.9a92.17,92.17,0,0,0-8.53,6.78c3.34-3.78,6.64-7.6,9.72-11.56,2.56-3.3,4.79-6.82,7.05-10.32,1.13-1.76,2.26-3.5,3.45-5.2.33-.47,2.72-4.36,3.5-4" style="fill:#fff"></path><path d="M334.26,443.93a.09.09,0,0,0,.08.09c.05,0,.09,0,.11-.08l.15-.75c.18-.92.33-1.83.47-2.75,0-.17.05-.33.07-.5a.18.18,0,0,0,.06-.09c1.74-9.91,9.29-17.75,9.53-28a40.64,40.64,0,0,0-2.34-13.41c-.61-1.87-1.63-8.15-4.44-8-2.18.09-3.14,3.81-3.53,5.37-1.24,5-.79,10.44-.55,15.5s.72,9.9,1.09,14.85a82.47,82.47,0,0,1-.27,13.53C334.56,441.05,334.42,442.48,334.26,443.93Z" style="fill:#ebebeb"></path><path d="M334.26,443.93a.09.09,0,0,0,.08.09c.14-.83.27-1.65.42-2.47-.06.55-.11,1.1-.16,1.64.18-.92.33-1.83.47-2.75.05-.47.1-.94.16-1.41a112.87,112.87,0,0,1,4.62-16.2,23.91,23.91,0,0,0,1.55-8.09c0-5.15-1.81-15.94-3.39-16.69s-1.3,2.92-1.33,3.78c-.22,6.92.47,13.81-.13,20.73-.4,4.66-.86,9.31-1.3,14-.21,1-.4,2.06-.56,3.1C334.56,441.05,334.42,442.48,334.26,443.93Zm1.64-10.34c.55-4.46,1.06-8.94,1.33-13.41.22-3.72.08-7.43,0-11.15-.06-1.86-.1-3.71-.08-5.56,0-.51-.2-4.58.54-4.74s1.35,2.7,1.5,3.46a109.08,109.08,0,0,1,1.61,11.1c.34,3.94-.66,7.37-2,11A82.76,82.76,0,0,0,335.9,433.59Z" style="fill:#fff"></path><path d="M333.12,452.15a1.43,1.43,0,0,0,.77-.26c10.1-3.87,21.14-4,31.3-7.91A29.38,29.38,0,0,0,377,436.22c1.35-1.54,6-6.83,5-9.29-3.09-7.38-37.17,15.88-48.38,24.24a2.11,2.11,0,0,0-.51.35C332.76,451.84,332.81,452.13,333.12,452.15Z" style="fill:#ebebeb"></path><path d="M333.12,452.15l2.26-1.24c2.45-1,4.93-1.92,7.45-2.71,4-1.26,8.12-2,12.18-3a38.69,38.69,0,0,0,17-9.09c1-1,4.16-3.53,3.49-5.33-.63-1.64-3.17,0-4.07.4-12.82,6.12-25.29,13.14-37.71,20.05l-.65.33C332.76,451.84,332.81,452.13,333.12,452.15Zm5.95-3.26c4.87-2.64,9.73-5.28,14.61-7.88,3.83-2,7.65-4.07,11.5-6.08,1.89-1,3.77-2,5.69-3,.76-.38,3.67-1.87,3.95-.81s-1.74,3-2.11,3.39c-5.76,5.92-13.14,9-21.06,10.73A93.34,93.34,0,0,0,339.07,448.89Z" style="fill:#fff"></path><path d="M381.51,366.82a.41.41,0,0,0-.05.38.62.62,0,0,0,.73.29.25.25,0,0,0,.18-.06c4.77-4.66,12.05-9,17-13.48A52.36,52.36,0,0,0,408.79,342a70.28,70.28,0,0,0,7-15.52c.77-2.58,3-8.69.9-11.23-4.31-5.23-13,13.8-14.28,15.93C395.38,343,388.39,354.89,381.51,366.82Z" style="fill:#ebebeb"></path><path d="M381.46,367.2a.48.48,0,0,0,.44.31c.28-.39.56-.81.84-1.21,1.87-2.19,3.73-4.38,5.72-6.47,3.24-3.4,6.94-6.35,10.06-9.86,5.44-6.12,15.65-25.59,12.72-27.54-1.53-1-3.43,3-4,3.95-2.2,3.75-3.9,7.76-6.15,11.49-2.34,3.91-4.92,7.69-7.48,11.46-4,5.81-7.94,11.6-11.84,17.46C381.68,366.93,381.58,367.07,381.46,367.2Zm3.92-4.72c3.52-5.13,7-10.3,10.48-15.46,2.4-3.56,4.78-7.16,6.92-10.89,1.2-2.1,2.27-4.25,3.34-6.4.53-1.05,1.06-2.11,1.65-3.12s2.42-4.51,3.28-3.18-1.72,7-2.33,8.37c-1,2.17-2,4.32-3.11,6.44a56.07,56.07,0,0,1-7.83,11.69c-3.16,3.49-6.84,6.44-10,9.9C387,360.7,386.15,361.58,385.38,362.48Z" style="fill:#fff"></path><path d="M324.33,376.3c8.77,9.53,22.93,12.18,28.09,28.89,0,.07.1.06.13,0a0,0,0,0,0,0-.06c-.32-1.68-.69-3.36-1.15-5a72.93,72.93,0,0,0-12.12-25.05,55,55,0,0,0-11.85-11.6c-2.32-1.64-7.32-5.81-10.2-5.17C311,359.69,322.73,374.57,324.33,376.3Z" style="fill:#ebebeb"></path><path d="M324.85,370.43c3.54,6.93,10.55,11.42,15.91,16.82a63.29,63.29,0,0,1,9.7,12.27c.73,1.88,1.42,3.77,2.09,5.69a0,0,0,0,0,0-.06c-.32-1.68-.69-3.36-1.15-5-.05-.09-.09-.18-.15-.27A77.45,77.45,0,0,0,344,385.28a80.37,80.37,0,0,0-14.47-17.16c-1-.87-4.15-4.64-5.81-3.68S324.36,369.47,324.85,370.43Zm-.59-5.38c1.21-.45,6.84,5.14,9,7.42a80.09,80.09,0,0,1,12.22,16.37,72.88,72.88,0,0,1,3.85,8,63.42,63.42,0,0,0-6.34-7.94c-4.84-5.19-10.89-9.34-15.27-14.9a22.6,22.6,0,0,1-2.91-4.74C324.55,368.56,323.16,365.46,324.26,365.05Z" style="fill:#fff"></path><path d="M335.21,324.28a59.86,59.86,0,0,0-.1,14,58.61,58.61,0,0,0,9.18,25.29l.26.41c.08.44.16.89.27,1.32,0,.11,0,.2.07.31l0,.06h0a.12.12,0,0,0,.2-.09c0-.54,0-1.1,0-1.64.18-11.29,2.26-22.35.75-33.66-.34-2.47-1.95-18.63-7.59-15.87C335.67,315.73,335.5,321.92,335.21,324.28Z" style="fill:#ebebeb"></path><path d="M337.46,326.55c-.39,7,1.44,14.43,2.87,21.21a160.8,160.8,0,0,0,4,15.84c.12.42.27.85.4,1.27l.13.46a2.22,2.22,0,0,0,.09.37h0a.12.12,0,0,0,.2-.09c0-.54,0-1.1,0-1.64s-.23-.83-.34-1.25a133.09,133.09,0,0,1-.7-18.54c0-3.37,0-6.71-.31-10.06s-.44-6.69-1.44-9.79c-.44-1.35-1.35-4-3.25-3C337.51,322.14,337.55,325.08,337.46,326.55Zm4.15-2.35c1.2,3.66,1.37,7.95,1.63,11.78.26,3.66.22,7.34.18,11a114.9,114.9,0,0,0,.28,11.73c-1.34-4.89-2.63-9.8-3.58-14.83-.75-3.93-1.4-7.88-1.86-11.85a29.57,29.57,0,0,1-.2-6.17,17.16,17.16,0,0,1,.29-2.17C338.85,321.43,341.08,322.55,341.61,324.2Z" style="fill:#fff"></path><path d="M404.54,295c0,.18-.06.36-.11.54a.33.33,0,0,0,.42.37.33.33,0,0,0,.25-.26c.07-.32.15-.65.23-1h0l.18-.8c.25-.43.51-.86.79-1.28,3-4.53,8.18-8.36,11.7-12.23a71.68,71.68,0,0,0,8.7-11.3,35,35,0,0,0,5-13.48c.16-1.29.78-4.56-.84-5.38-2-1-5.17,2.89-6.27,3.92a58.19,58.19,0,0,0-9.77,12.12C409.38,275.1,406.58,284.81,404.54,295Z" style="fill:#ebebeb"></path><path d="M405.46,292.7a21.69,21.69,0,0,0-.92,2.25c0,.18-.06.36-.11.54a.33.33,0,0,0,.42.37c0-.13.08-.26.13-.38l.35-.86h0c.3-.71.63-1.39,1-2.08a46.31,46.31,0,0,1,4.39-7c2.87-3.84,5.89-7.57,8.62-11.51,1.37-2,11.89-17.2,7.75-18.66-.77-.28-1.53.77-1.95,1.2a31.85,31.85,0,0,0-3.77,5.1c-2.64,4.12-5.13,8.36-7.48,12.66A136.21,136.21,0,0,0,405.46,292.7ZM413,277c2-3.81,4.15-7.55,6.37-11.23,1.08-1.79,2.16-3.6,3.35-5.34.58-.86,3.54-4.72,4.35-4.21,1.19.74-1.63,6.76-2.48,8.38-1,1.85-2.05,3.64-3.17,5.41-2.25,3.55-4.73,7-7.29,10.3-2.25,3-4.94,6.1-7.05,9.51A136.43,136.43,0,0,1,413,277Z" style="fill:#fff"></path><path d="M368.38,347.93l.18.52a.33.33,0,0,0,.55.11.34.34,0,0,0,.08-.34l-.3-1h0c-.08-.26-.15-.51-.24-.77,0-.5,0-1,0-1.51.31-5.42,2.88-11.34,4-16.45a71.61,71.61,0,0,0,1.85-14.14,35.17,35.17,0,0,0-2.4-14.18c-.51-1.21-1.63-4.34-3.43-4.24-2.29.14-3,5.1-3.47,6.54a58.5,58.5,0,0,0-2.36,15.39C362.6,328.33,365.05,338.13,368.38,347.93Z" style="fill:#ebebeb"></path><path d="M368,345.52a21.18,21.18,0,0,0,.34,2.41l.18.52a.33.33,0,0,0,.55.11,2.59,2.59,0,0,1-.09-.4c0-.3-.09-.6-.13-.91h0c-.09-.76-.15-1.51-.2-2.28a46.89,46.89,0,0,1,.29-8.24c.56-4.76,1.3-9.5,1.68-14.28.2-2.4,1.66-20.85-2.65-20-.81.15-.94,1.43-1.09,2a32.62,32.62,0,0,0-.71,6.31c-.21,4.89-.23,9.8-.11,14.7A135.18,135.18,0,0,0,368,345.52Zm-1.38-17.37c-.17-4.31-.2-8.61-.13-12.91,0-2.09.07-4.2.22-6.3.08-1,.7-5.86,1.65-5.82,1.41,0,2,6.66,2.06,8.49.07,2.09.05,4.18,0,6.27-.17,4.2-.61,8.39-1.14,12.56-.46,3.7-1.21,7.76-1.33,11.77A138.09,138.09,0,0,1,366.66,328.15Z" style="fill:#fff"></path><path d="M343.74,355.51a259.82,259.82,0,0,0,5.95,29c2,7.39,4,14.88,4.3,22.57.34,9.19-2.31,19.39-7,28.2q4-4.51,8-9.16c5.38-6.3,10.72-12.78,14.53-20.18.38-.73.72-1.47,1.06-2.21a.27.27,0,0,1,0-.18,100.13,100.13,0,0,0,1.93-29.76A83.73,83.73,0,0,0,366,358.88c-2.7-4.89-5.28-9.65-6.71-15.1-.08-.31.35-.5.47-.18,2.75,7.2,8.39,14.2,11.71,21.67-.19-1.23-.39-2.46-.61-3.7-2.17-11.82-6.26-23.69-1.93-35.5.14-.4.71-.13.59.26-4.08,13.16,2.33,27.65,4.23,40.72,1.41,9.73,1.89,20.2-.47,29.89a155.93,155.93,0,0,0,4.33-16.34c7.44-33.17,16-66.15,32.16-96.29.16-.29.63-.09.48.22-16.5,32.7-23,68.25-31.64,103.5-.1.4-.21.8-.31,1.2a66.38,66.38,0,0,1,10.37-12.53.21.21,0,0,1,.32.26c-4.73,6.06-8.34,12.69-12.6,19a68.87,68.87,0,0,1-6.16,14.19,112.86,112.86,0,0,1-11,15c6.73-5.65,13.53-11.22,19.86-17.37a302.17,302.17,0,0,0,26.93-29.62c.12-.15.34,0,.23.19a251.17,251.17,0,0,1-26.8,32c-8.38,8.33-17.35,16.83-27.41,23.23-9.62,11.07-19.9,22.19-32.06,30.29a.53.53,0,0,1-.62-.86c2.23-2,4.41-4,6.57-6,2.1-4.69,5-9,6.87-13.84a76.19,76.19,0,0,0,4.46-17.65c.06-.44.71-.33.68.11-.5,8.25-2.35,18.42-6.76,26.3q4.61-4.56,9-9.28c7.91-12.06,13.05-26.4,11.32-40.83-.88-7.41-3-14.58-4.76-21.82a162,162,0,0,1-3.63-24.39A.28.28,0,0,1,343.74,355.51Z" style="fill:#ebebeb"></path><path d="M165.88,319.33c1.59,4.38,1.27,9.77,1.07,14.34a113.07,113.07,0,0,1-1.82,15.56c-.86,4.79-2,9.54-3.15,14.25,0,0,0,.09,0,.13q-.12.48-.24.93c0,.39-.09.77-.16,1.16a.22.22,0,0,1-.2.2c-.13,0-.26,0-.24-.21s.05-.43.06-.64c.77-8.85-4.34-16.92-4.65-25.69-.16-4.81,1-9.62,1.89-14.31.49-2.6.62-6,1.63-8.41.26-.65.33-1.35,1.05-1.7C163.32,313.89,165.33,317.8,165.88,319.33Z" style="fill:#ebebeb"></path><path d="M163.79,322.61c-1.39-1.14-2.21,2-2.48,2.9-1.83,5.84-2.85,12.8-1.8,18.85,1.13,6.65,2.34,13.3,1.85,20l-.2.65c0,.21,0,.43-.06.64s.11.23.24.21,0-.26.06-.4c.2-.62.37-1.25.54-1.89,0,0,0-.08,0-.13a127.63,127.63,0,0,0,2.33-13.79,89.23,89.23,0,0,0,1-19.52,43.55,43.55,0,0,0-.59-4.69C164.61,324.7,164.47,323.17,163.79,322.61Zm.78,3.94c.25,1.65.41,3.3.5,5a90.21,90.21,0,0,1-1,17.14,127.64,127.64,0,0,1-2.44,14.7,52.25,52.25,0,0,0-.49-11.51c-.4-2.87-1-5.7-1.43-8.57a32,32,0,0,1,.35-9.66,40.62,40.62,0,0,1,1.93-8.94c.23-.57.87-1.83,1.37-1.75C164.24,323.09,164.47,325.91,164.57,326.55Z" style="fill:#fff"></path><path d="M126.14,386.93s0,0,0,0" style="fill:#ebebeb"></path><path d="M161.57,448.06a.2.2,0,0,1,.1.26h0a.24.24,0,0,1-.18.18.3.3,0,0,1-.18,0c-5.41-2.73-10.59-7.09-16.86-7.41-4.91-.26-9.13.35-13.79-1.66a37,37,0,0,1-12.47-9,37.44,37.44,0,0,1-4.25-5.61c-.59-1-2.53-3.35-2.26-4.59,1.27-5.75,18.35,4.49,20.62,5.87,10,6.11,20.27,13,28.65,21.28a.12.12,0,0,1,0,.1.21.21,0,0,1-.06.1Q161.24,447.82,161.57,448.06Z" style="fill:#ebebeb"></path><path d="M161.57,448.06q-.33-.24-.66-.45a.21.21,0,0,0,.06-.1c-5.55-4.21-11.44-8-17.36-11.71a171.23,171.23,0,0,0-19.68-11.07c-.93-.43-4.82-2.75-5.63-1.24s3.22,4.95,4.08,5.72c5.07,4.53,11.68,6.61,18.07,8.48,4.15,1.22,8.22,2.38,11.94,4.68,3.12,1.92,6,4.19,9.1,6.14a.24.24,0,0,0,.18-.18c-1.58-1-3.11-2.11-4.64-3.21l4.64,3.2A.2.2,0,0,0,161.57,448.06Zm-14-8.55c-6.22-2.43-12.89-3.49-18.88-6.55a26.72,26.72,0,0,1-7.73-5.74c-.42-.46-2.44-2.49-2-3.3.3-.54,1.92,0,2.15.05a47.82,47.82,0,0,1,5.17,2.3c5.85,3,11.53,6.37,17.11,9.83,3.1,1.92,6.13,3.92,9.14,6A29.62,29.62,0,0,0,147.58,439.51Z" style="fill:#fff"></path><path d="M136.87,328.91c.67,5.2-.37,10.62-1.79,15.61-3.28,11.56-9.62,22.3-11.63,34.22-.08.47-.15.94-.21,1.4.1.62,0,.47-.18-.26h0c-.87-3.17-3.89-17.14-2.51-27.18.87-6.25,3-12.16,5.19-18.06,1.24-3.37,2.44-6.75,3.7-10.1.41-1.08,1-4.15,2.61-4.39C135.2,319.68,136.6,326.88,136.87,328.91Z" style="fill:#ebebeb"></path><path d="M131.41,330a1.07,1.07,0,0,0-1.4.37,5.36,5.36,0,0,0-.69,2.05c-.31,1.23-.63,2.45-.95,3.67-2.19,8.47-5.13,17.11-6,25.84a72.72,72.72,0,0,0,.63,17.43c0,.19,0,.38,0,.57h0c.2.73.28.88.18.26.06-.46.13-.93.21-1.4,0-.65,0-1.3.06-2a53.49,53.49,0,0,1,3-13.13,132.8,132.8,0,0,0,6-24.94,25.56,25.56,0,0,0,.2-5.73C132.53,332.12,132.32,330.41,131.41,330Zm.76,2.74a8.81,8.81,0,0,1,.12,1.26,22.08,22.08,0,0,1-.06,2.7c-.16,2.18-.5,4.33-.87,6.48a183,183,0,0,1-5.92,22.41,47.84,47.84,0,0,0-2.33,11.23,94.62,94.62,0,0,1-.48-9.65c0-8.24,2.33-16.05,4.36-24,.51-2,1-3.93,1.52-5.89l.75-2.94.38-1.47c.25-1,.1-1.4,1.2-1.7C132.19,330.78,132,331.55,132.17,332.69Z" style="fill:#fff"></path><path d="M145.1,377.23a64,64,0,0,1,3.15,11.86c1.35,8.11.11,17.48,2.24,25.56.18.53.36,1.07.5,1.61.06.2.11.4.16.61a.1.1,0,0,1-.19.06c-.17-.34-.34-.68-.52-1v0c-.09-.18-.19-.36-.27-.54-4-7.87-9.18-15.06-10.89-23.89-1.06-5.44-2.74-20.42.85-21.56C141.72,369.39,144.22,374.9,145.1,377.23Z" style="fill:#ebebeb"></path><path d="M141.84,378c-.86.4-.83,2.08-.88,2.78a33.72,33.72,0,0,0,.2,5.59,56.11,56.11,0,0,0,2,10.18,110.4,110.4,0,0,0,7,18.77c.08.18.18.36.27.54v0c.18.34.35.68.52,1a.1.1,0,0,0,.19-.06c-.05-.21-.1-.41-.16-.61-2.64-6.93-3.75-14.21-4.67-21.59C146.12,393,144.78,376.63,141.84,378Zm2.68,6.65c.25,1.54.47,3.09.67,4.65.49,3.62.9,7.26,1.43,10.88a83.74,83.74,0,0,0,2.46,11.71,141.28,141.28,0,0,1-4.92-13.36,75.89,75.89,0,0,1-2.22-9.13,37.39,37.39,0,0,1-.52-5.07c0-.81-.38-5.5.59-5.9C143.22,378,144.41,384,144.52,384.68Z" style="fill:#fff"></path><path d="M179.37,361.23c2,2.43,1,7.29,0,9.85a23.3,23.3,0,0,1-7.41,9c-4.47,3.53-9.45,6.25-13.21,10.61s-2.53,3-5.15,8.56c0,.1-.15.11-.24,0a1.06,1.06,0,0,1-.16-.88.77.77,0,0,1,0-.15c2.41-9.1,7.08-16.27,13.27-23.37,3.51-4,5.63-9.12,9.28-13C177.1,360.4,178,359.55,179.37,361.23Z" style="fill:#ebebeb"></path><path d="M177.27,366c-1.34-.63-3,2.09-3.71,3.07a57.25,57.25,0,0,1-6.4,8.13,70.17,70.17,0,0,0-6.24,6.67,45.72,45.72,0,0,0-6.78,12.19,23.48,23.48,0,0,0-1,2.29,1.06,1.06,0,0,0,.16.88c0-.1.07-.19.1-.3a31.27,31.27,0,0,1,11-14.22c5.1-3.86,9.9-8.16,12.63-14.08C177.57,369.59,178.5,366.61,177.27,366Zm-.22,3.87a27.61,27.61,0,0,1-1.51,3,31.56,31.56,0,0,1-3.61,4.84,55.69,55.69,0,0,1-8,7,34.32,34.32,0,0,0-8.41,8.95,46.73,46.73,0,0,1,6.33-10.34c2.3-2.82,5.11-5.1,7.47-7.83,1.09-1.27,2.05-2.62,3-4l1.54-2.21c.46-.65,1.92-3,2.9-2.78C178,366.72,177.23,369.47,177.05,369.88Z" style="fill:#fff"></path><path d="M96,338.26c8,9.09,15.53,18.64,22.65,28.46a.31.31,0,0,1,0,.38.11.11,0,0,1,0,.06l.13.19a.15.15,0,0,1,0,.19l0,0h0a.16.16,0,0,1-.14,0c-5-4.91-9.73-9.52-16-12.77-5.78-3-11.47-5.44-16.49-9.66-4.28-3.62-16.42-21.46-14.45-25.72C72.85,316.5,89.59,331,96,338.26Z" style="fill:#ebebeb"></path><path d="M86,332.19c-1.05-1-4.13-5-6.1-4.19s1.17,4.84,1.75,5.7a58.49,58.49,0,0,0,7.16,8.85c2.71,2.64,5.94,4.4,9.07,6.46,7.72,5.11,14.52,11.74,20.72,18.55h0l0,0a.15.15,0,0,0,0-.19l-.13-.19a.11.11,0,0,0,0-.06C108.94,354.46,97.43,343.27,86,332.19ZM118,366.7a130.45,130.45,0,0,0-13.69-13.32c-5.68-4.75-12.53-7.81-17.43-13.46A44,44,0,0,1,80.41,331c-.21-.43-1-1.88-.47-2.45s1.86.12,3.59,1.71c1.44,1.31,2.8,2.72,4.19,4.08,5.49,5.36,11,10.75,16.22,16.33Q111.26,358.41,118,366.7Z" style="fill:#fff"></path><path d="M129.48,404.85a.19.19,0,0,1,0,.13.21.21,0,0,1-.27.14c-.25-.09-.51-.16-.76-.24a.08.08,0,0,1-.07,0c-5.76-.74-10.43.23-16,1.65a25.47,25.47,0,0,1-12.45,0,42.55,42.55,0,0,1-12.55-5.67c-1.58-1-6.64-3.28-5.81-6.05,1.35-4.57,16.69,1.37,19.35,2.23a118.77,118.77,0,0,0,14.36,3.85c4.81.93,9.62,1.72,14.1,3.81A.16.16,0,0,1,129.48,404.85Z" style="fill:#ebebeb"></path><path d="M126.43,404.16a0,0,0,0,1,0,0c-2.78-.63-5.55-1.38-8.35-1.87-3.14-.55-6.35-.48-9.51-1-5.89-1-11.51-3.17-17.34-4.46-.76-.17-2.26-.47-1.86.83.17.56,1,1,1.41,1.32a27.29,27.29,0,0,0,4.11,2.41c4.86,2.32,10.5,4,15.93,3.77,6.29-.29,12.41-1.47,18.63-.14a.19.19,0,0,0,0-.13A18.94,18.94,0,0,0,126.43,404.16Zm-13.63.38A34.67,34.67,0,0,1,93,399.87a28,28,0,0,1-2.54-1.69c-.48-.41-1.18-1.28.67-1a9.68,9.68,0,0,1,1.29.31c1.5.37,3,.79,4.5,1.22,3.19.91,6.37,1.86,9.62,2.55a59.73,59.73,0,0,0,8.74,1,71.08,71.08,0,0,1,10.53,1.8C121.52,403.53,117.08,404.2,112.8,404.54Z" style="fill:#fff"></path><path d="M112.89,392.38a.49.49,0,0,1,0,.27.35.35,0,0,1-.05.13.45.45,0,0,1-.1.14l0,0a.41.41,0,0,1-.41,0,18.83,18.83,0,0,1-2.45-1.11c-9.53-3.64-19.3-7.48-27-14.21a62.72,62.72,0,0,1-10.37-11.75c-1.46-2.12-5.48-6.55-4.15-9.52s3.93-1.05,5.71.16a132.25,132.25,0,0,1,13.35,10.08,74.23,74.23,0,0,1,11.17,12.13c3.9,5.32,7.64,10.84,14.07,13.26A.44.44,0,0,1,112.89,392.38Z" style="fill:#ebebeb"></path><path d="M95.29,378.9a162.88,162.88,0,0,0-17.42-15.78c-.8-.63-3.09-2.26-3.45-.43-.42,2.16,2.77,4.7,4,6a122.71,122.71,0,0,0,14.92,13.54,68.9,68.9,0,0,0,19.53,10.57.35.35,0,0,0,.05-.13c-11.54-4.29-21.55-11.79-30.28-20.34-2.1-2.06-4.23-4.15-6.16-6.38-.31-.36-2.07-2.76-1.39-3.42s3.09,1.39,3.39,1.64l4.16,3.47a192.51,192.51,0,0,1,14.68,14,46.59,46.59,0,0,0,15.6,11,.49.49,0,0,0,0-.27C105.9,389.3,100.51,384.46,95.29,378.9Z" style="fill:#fff"></path><path d="M95.37,293.23a46.32,46.32,0,0,1,7.53,14.29c2.32,8.05,2.19,16.47,3.34,24.7,0,0,0,.07,0,.1a56.62,56.62,0,0,0,1.31,6.65c.12.46.25.93.39,1.4a.35.35,0,0,1,0,.29.48.48,0,0,1-.19.09.28.28,0,0,1-.2,0h0a.34.34,0,0,1-.22-.22c-.23-.66-.44-1.33-.64-2a.13.13,0,0,1-.1-.08c-4.92-10.29-10.5-20.68-16.09-30.85a82.3,82.3,0,0,1-6.36-14.06c-.94-2.9-2.09-7.37,0-10a.63.63,0,0,1,.56-.31C89.34,284,92.83,289.75,95.37,293.23Z" style="fill:#ebebeb"></path><path d="M90.23,293.89c-2.22-.72-1.77,1.91-1.41,3.24a91.86,91.86,0,0,0,3.93,10.39c1.56,3.83,3.17,7.65,4.85,11.43,3.15,7.15,7.57,14.26,9.9,21.76,0,0,0,0,0,0h0a.28.28,0,0,0,.2,0,.48.48,0,0,0,.19-.09c-.12-.57-.23-1.13-.35-1.69-.44-2.22-.87-4.44-1.31-6.65,0,0,0-.06,0-.1-2.11-10.66-4.42-21.24-10-31C94.9,298.93,93,294.76,90.23,293.89Zm6.66,9.32A77.72,77.72,0,0,1,104,322.75c1.22,5.4,2,10.87,3.17,16.28-1.55-4.35-3.82-8.48-5.78-12.69q-4.6-9.91-8.69-20c-.66-1.63-1.3-3.25-1.93-4.89C90.18,300,89,297.7,89,296.12c0-3.07,2.55-1,3.39-.08a17.83,17.83,0,0,1,1.87,2.62C95.18,300.15,96.06,301.67,96.89,303.21Z" style="fill:#fff"></path><path d="M163.37,348.7a224.08,224.08,0,0,1-6.09,29.7c-2.5,9-5.1,17.9-6.31,27.13-1.61,12.26-.51,25.7,5.74,36.36a144.67,144.67,0,0,1-24.62-41.15c-10.07-25.3-19.19-51.3-31.42-75.66-.21-.41-.77-.09-.62.31,5,13.3,10.9,26.28,16,39.55s9.82,26.51,15.15,39.59c.58,1.41,1.18,2.81,1.8,4.19-7.81-9.67-19.26-16.8-30.5-20.93-.14-.06-.2.16-.06.22a79.25,79.25,0,0,1,21.66,14.4c5.6,5.16,9.85,11.13,14.35,17.17A121.92,121.92,0,0,0,181,464a.17.17,0,0,0,.19-.29,121.38,121.38,0,0,1-19.66-16.51C151.47,433.85,151,416.09,154,400c1.57-8.47,3.81-16.78,5.82-25.14s4.25-17.32,4-26.1A.24.24,0,0,0,163.37,348.7Z" style="fill:#ebebeb"></path></g><g id="freepik--Table--inject-171"><path d="M51.68,464c127.06-.61,269.58-.61,396.64,0-127.06.62-269.58.62-396.64,0Z" style="fill:#263238"></path></g><g id="freepik--iced-coffee--inject-171"><g style="opacity:0.9"><path d="M71.65,132.75c-2.49-1.3-4.52-6-5.72-7.25s-3.85-4.31-1-5.84,3.32,3.39,3.65,5.71,1.86,3.46,3.06,3.52,1.92-1.72,3.85-1.39,2.53,2.39,5,2.85,2.92.07,4.85-1.66,5.51-6.31,5.85-8,2.45-12.88,6.24-11.76c1.8.53.6,3.92-.93,5.25s-2.46,3.79-1.33,5.12,2.79,2.59,12.36,2.06,11.9-2.93,12.56-5.12-.8-4.65.6-8S133.37,101,134,96.33s-4.32-4.78-4.51-9.56,6.44-5.39,8.63.26,3,10.5,2.13,13.49-.4,7,6.05,8.84,10.3-2.39,18.8-8.24,28,1.73,34.69.33,8.17-6.25,8.7-8.9a68.84,68.84,0,0,0,1.13-10.9c0-3.19-4.78-5.65-5.78-7.77S202,67.16,198.82,67s-7.11-1.13-7.31-5,9.1-5.39,12.16-.27,3.45,5.25,7.44,7.44,4.12,6.18,6.58,8.31,7,6.38,13.42,6.18S246.53,82.31,253,85.9s16.81,9.9,21.53,10.57,21.06.43,27.64-.91,10.83-4.67,16.88-6.4S330.52,91,333.9,90.75s5.52-2.85,9.17-4.45,7.51-1.93,10.44-4.32,4.58-7.71,8.9-7.84,4.32,5.12,1.59,6.65-7.37,2.12-9,4-.53,3.92-3.18,5.71-6,2.53-5.59,4.39,2.53,2.79,8,3.06,12-.14,16.75,3.12,5.85,5.11,5.85,5.11L357.62,144H249.21s-24.78,10.65-38.93,10.63A28.48,28.48,0,0,1,188.05,144H141.13s7.58-16.83-10.09-15.15C82.27,133.54,71.65,132.75,71.65,132.75Z" style="fill:#C9B59C"></path><path d="M71.65,132.75c-2.49-1.3-4.52-6-5.72-7.25s-3.85-4.31-1-5.84,3.32,3.39,3.65,5.71,1.86,3.46,3.06,3.52,1.92-1.72,3.85-1.39,2.53,2.39,5,2.85,2.92.07,4.85-1.66,5.51-6.31,5.85-8,2.45-12.88,6.24-11.76c1.8.53.6,3.92-.93,5.25s-2.46,3.79-1.33,5.12,2.79,2.59,12.36,2.06,11.9-2.93,12.56-5.12-.8-4.65.6-8S133.37,101,134,96.33s-4.32-4.78-4.51-9.56,6.44-5.39,8.63.26,3,10.5,2.13,13.49-.4,7,6.05,8.84,10.3-2.39,18.8-8.24,28,1.73,34.69.33,8.17-6.25,8.7-8.9a68.84,68.84,0,0,0,1.13-10.9c0-3.19-4.78-5.65-5.78-7.77S202,67.16,198.82,67s-7.11-1.13-7.31-5,9.1-5.39,12.16-.27,3.45,5.25,7.44,7.44,4.12,6.18,6.58,8.31,7,6.38,13.42,6.18S246.53,82.31,253,85.9s16.81,9.9,21.53,10.57,21.06.43,27.64-.91,10.83-4.67,16.88-6.4S330.52,91,333.9,90.75s5.52-2.85,9.17-4.45,7.51-1.93,10.44-4.32,4.58-7.71,8.9-7.84,4.32,5.12,1.59,6.65-7.37,2.12-9,4-.53,3.92-3.18,5.71-6,2.53-5.59,4.39,2.53,2.79,8,3.06,12-.14,16.75,3.12,5.85,5.11,5.85,5.11L357.62,144H249.21s-24.78,10.65-38.93,10.63A28.48,28.48,0,0,1,188.05,144H141.13s7.58-16.83-10.09-15.15C82.27,133.54,71.65,132.75,71.65,132.75Z" style="opacity:0.6000000000000001"></path><g style="opacity:0.2"><path d="M86.56,130.56a15.33,15.33,0,0,0,3.29-2.85c2.09-2.15,4.66-4.28,7.8-4.55,4.43-.54,8.91-.42,13.31-.74,2.76-.3,5.74-.24,8.25-1.52a11.66,11.66,0,0,0,3-2.79c2.68-3.42,5.27-8,10-8.67,9.26-1.3,16.36,5.8,25.58,0,3.89-2.1,6.92-5.72,11.19-7.45,6.94-1.8,15.5.77,22.42,1.8,2.79.43,5.75,1,8.52.58,5.31-1.07,10.48-5.91,12.25-11.06l.19,0c-1.15,5.57-6.52,11.19-12.13,12.57-3.17.62-6.16.15-9.12-.21-5.81-.77-11.6-2.13-17.42-2.23a10.71,10.71,0,0,0-7.68,2.4c-4.66,3.45-10.12,7.57-16.35,7-6-.39-11.32-3.95-17.34-2.8-4.55.85-6.55,5.42-9,8.87-2.83,4.62-7.33,5-12.28,5.24-5.12.43-10.3-.32-15.32.66-3.59,1-5.78,4.4-9.13,5.9l-.06-.19Z"></path><path d="M215.75,80c3.08,3.27,7,6.29,11.55,6.45,2.29.09,4.71.12,7.08,0,4.75-.19,9.88-1.57,14.44.42,6.78,2.59,12.36,7.18,18.61,10.66l-.07.19a33.18,33.18,0,0,1-6.75-2.52c-4.28-2-8.3-4.58-12.51-6.59-6.62-3.09-13.87-1.37-20.8-.49-5,.27-9.67-3.67-11.72-8l.17-.11Z"></path><path d="M297.48,98.76c9.3-2,17.58-8.36,27.44-7.33,3.19.19,6.34,1,9.41,1.45a18.17,18.17,0,0,0,3.54-.07c1.42,0,2.57,1.52,3.27,2.32a12.93,12.93,0,0,0,3,2.4c2.19,1.07,4.64,1.29,7.07,1.65,3.09.43,6.25.73,9.4,1.26s6.38,1.13,9.17,2.82l-.09.17c-8.39-2.67-17.75-.44-26-3.91a11.84,11.84,0,0,1-2.13-1.43,27.64,27.64,0,0,1-3.19-3.47,2.51,2.51,0,0,0-1.75-.36c-2.52,0-4.77-1-7.14-1.53-8-2.4-15.17,2.27-22.58,4.57A31.34,31.34,0,0,1,297.5,99l0-.2Z"></path></g><path d="M181.4,115c10,.39,19.23-2.38,29.22-2.07a21.76,21.76,0,0,1,7.86,1.53c4.73,1.92,8.76,4.83,13.63,6.07a25,25,0,0,0,10.47.35c1.93-.32,3.92-.53,5.47-1.9,2.64-2.33,4.09-5.35,6.73-8.24A18.71,18.71,0,0,1,266,104.47c5.82-.7,12.72-.57,18.6-.71a41.45,41.45,0,0,0,7.24-.69l.26.55c-4.09,3.12-9.38,4.23-14.26,5.3-3.57.76-7.18,1.29-10.77,1.85-5.73.93-8.84,5.32-12.62,9.65-4.49,5.22-9.14,5.57-15.63,4.43-7.53-1.11-13.75-6.34-21.15-7.44-4.73-.51-9.35,1.09-14.12,1.12a65.51,65.51,0,0,1-15.06-.48,22.89,22.89,0,0,1-7.29-2.48l.17-.58Z" style="fill:#C9B59C;opacity:0.2"></path><g style="opacity:0.30000000000000004"><path d="M122,115c-.46-3.11-1-7.76,2.61-9.24,4.31-1.47,8.59-4.32,9.84-8.89.67-3.07-1.27-5.14-3.09-7.59a4.06,4.06,0,0,1-.83-2.63,3.66,3.66,0,0,1,1.34-2.21l.16.12a3.76,3.76,0,0,0-.48,2.09,3.32,3.32,0,0,0,1,1.64A16.18,16.18,0,0,1,135.82,92c1.83,3.26.21,7.46-2.64,9.44l-7.78,5.74c-2.79,1.63-2.16,5.07-3.22,7.8l-.2,0Z" style="fill:#C9B59C"></path><path d="M96.47,109.91c-1,1.43-1.13,3.15-2,4.68A17.21,17.21,0,0,0,93.25,117c-.66,1.77-.07,3.8-1.11,5.46a14.73,14.73,0,0,1-5.47,6.06l-.16-.11c1-3.48,3.69-6,5.27-9A15.54,15.54,0,0,0,92.94,114,7.23,7.23,0,0,1,95,110.38a2.35,2.35,0,0,1,1.38-.65l.07.18Z" style="fill:#C9B59C"></path><path d="M66.22,120.22a3.38,3.38,0,0,0-.62,1.43,7.08,7.08,0,0,0,.27,1,4.75,4.75,0,0,0,1.86,3,11.81,11.81,0,0,1,2.41,2.79c.62,1,.93,2.12,1.55,3.2l-.08.18c-1.42-.07-2.46-1.19-3.26-2.2a11.75,11.75,0,0,1-1.53-3.36,3.36,3.36,0,0,0-.86-1.57c-.43-.44-1.08-.73-1.55-1.29a2.27,2.27,0,0,1-.26-2.43,2.07,2.07,0,0,1,2-1l.1.18Z" style="fill:#C9B59C"></path><path d="M195.75,59.29c-2,1-2.76,3.16-.58,4.4,2.11,1,4.33,1.39,6.49,2.63a4.43,4.43,0,0,1,1.69,1.92,23.71,23.71,0,0,0,4.18,5.56,10.9,10.9,0,0,0,1.23,1.12c3.45,3.06,3.84,8.54,2.44,12.51l-.2,0c-.3-4.1-1-8-3.59-10.94a18.62,18.62,0,0,1-4.69-8c-.89-2.51-3.76-2-6-2.41-2.9-.26-5.9-3.46-3.42-6a3.64,3.64,0,0,1,2.41-1l.05.2Z" style="fill:#C9B59C"></path></g></g><rect x="195.06" y="32.44" width="16.59" height="398.21" transform="matrix(-0.96, 0.29, -0.29, -0.96, 464.71, 394.84)" style="fill:#C9B59C"></rect><polygon points="139.93 47.42 158.24 54.12 162.56 68.51 144.25 61.8 139.93 47.42" style="fill:#fff"></polygon><polygon points="149.4 78.98 167.72 85.68 172.04 100.07 153.72 93.36 149.4 78.98" style="fill:#fff"></polygon><polygon points="158.88 110.54 177.19 117.24 181.51 131.63 163.2 124.93 158.88 110.54" style="fill:#fff"></polygon><polygon points="168.35 142.1 186.67 148.8 190.99 163.19 172.67 156.49 168.35 142.1" style="fill:#fff"></polygon><polygon points="177.83 173.66 196.15 180.36 200.46 194.75 182.15 188.05 177.83 173.66" style="fill:#fff"></polygon><polygon points="187.3 205.22 205.62 211.93 209.94 226.31 191.62 219.61 187.3 205.22" style="fill:#fff"></polygon><polygon points="196.78 236.78 215.09 243.49 219.41 257.87 201.1 251.17 196.78 236.78" style="fill:#fff"></polygon><polygon points="206.25 268.34 224.57 275.05 228.89 289.43 210.57 282.73 206.25 268.34" style="fill:#fff"></polygon><polygon points="215.73 299.9 234.05 306.61 238.37 320.99 220.05 314.29 215.73 299.9" style="fill:#fff"></polygon><polygon points="225.21 331.46 243.52 338.17 247.84 352.55 229.53 345.85 225.21 331.46" style="fill:#fff"></polygon><polygon points="234.68 363.02 253 369.73 257.32 384.11 239 377.41 234.68 363.02" style="fill:#fff"></polygon><polygon points="244.16 394.59 262.47 401.29 266.79 415.67 248.47 408.97 244.16 394.59" style="fill:#fff"></polygon><rect x="204.95" y="30.99" width="6.49" height="398.21" transform="translate(473.76 390.6) rotate(163.29)" style="fill:#fff;opacity:0.2"></rect><rect x="171.4" y="452.49" width="152.94" height="11.49" style="fill:#ebebeb"></rect><polygon points="324.33 452.49 324.33 455.36 171.4 458.23 171.4 452.49 324.33 452.49" style="opacity:0.1"></polygon><g style="opacity:0.8"><polygon points="357.21 176.7 355.12 176.7 352.23 236.95 349.69 236.95 337.87 388.79 335.49 388.79 329.89 452.49 170.11 452.49 164.51 388.79 162.13 388.79 150.31 236.95 147.77 236.95 144.88 176.7 142.79 176.7 141.69 151.84 358.31 151.84 357.21 176.7" style="fill:#C9B59C"></polygon><path d="M283.9,213.19c.53-.13,19.35,5.6,20.65,5.77s14.56,3.9,14.8,4,5.6,9.76,6.09,10.41,7.16,12.19,7.32,13.17-7.89,15.28-9,18.53-10.56,20.17-11.62,20.57-17.16-4.79-19.43-5.36-17.81-3.34-18.7-4.07-5.2-12.78-6.34-15.46-6.12-11-5.31-12.63,6.85-12.23,8.8-14.75S282.52,213.51,283.9,213.19Z" style="fill:#C9B59C;opacity:0.6000000000000001"></path><path d="M267.64,250.83c.16-.41,17.4,4.71,19,5s14.55,2.11,15.53,3,3.33,8.3,4.23,10,6.5,12.12,6.09,12.85-17.23-4.31-19.91-4.55-15-2.36-16.51-4.31-3.25-9.92-5-13.66S267.64,250.83,267.64,250.83Z" style="fill:#C9B59C;opacity:0.5"></path><path d="M280.89,223.75c-.33.33-10.16,18-10.16,18s5.77-2.6,6-4.15.57-3.41.57-3.41,5.21-.33,5.21-1.95S280.89,223.75,280.89,223.75Z" style="fill:#C9B59C"></path><path d="M292.52,220.13c.36-.91,6.5,1.92,8.53,2s14.31,1.71,15.53,2,3.66,3.74,3.33,3.82-3.66-.81-5.93-.41-5,4.56-6.1,3.91-2.76-3.91-4.39-4.15-3.25,1.71-4.39.9-3.33-1.45-4-2.39S292.52,220.13,292.52,220.13Z" style="fill:#C9B59C"></path><path d="M283.37,217c.11.74,7.6,16.74,8.17,16.5s.41-1.87,0-2.44-4.7-13.52-5.37-14.47C285,214.85,283,214.81,283.37,217Z" style="fill:#C9B59C"></path><path d="M299.56,277.65c.65-.81,7.24,2.13,9.59,1.63s8.62-14.31,9.16-15.39,2.12-2.55,2.28-1.25-6.94,16.48-7.26,17.18-2.77,3.25-3.58,3.47-3.68-.7-4.82-1.19S298.52,279,299.56,277.65Z" style="fill:#C9B59C"></path><path d="M276.62,271.92c.66.27,6.79-9.06,8.09-11s5.81-8.42,6.1-10.37,4-12.31,4.43-12.6S309.51,242,311.82,243s10.94,3.7,12.73,3.74,4.43,0,4.39-.65-11.06-3.21-13.78-4.39-20-6.79-20.61-6.38-5.57,12.74-6,14.07-4.79,7.47-5.24,8.45S275.61,271.52,276.62,271.92Z" style="fill:#C9B59C;opacity:0.6000000000000001"></path><path d="M211.09,285.28c-.47-.12-17.36,5-18.53,5.18S179.49,294,179.28,294s-5,8.76-5.47,9.34-6.42,10.95-6.57,11.82,7.08,13.72,8.1,16.64,9.49,18.09,10.44,18.46,15.39-4.31,17.43-4.82,16-3,16.79-3.65,4.66-11.47,5.69-13.88,5.49-9.9,4.76-11.33-6.15-11-7.9-13.24S212.33,285.57,211.09,285.28Z" style="fill:#C9B59C;opacity:0.6000000000000001"></path><path d="M225.69,319.06c-.15-.37-15.62,4.23-17.08,4.45s-13.06,1.9-13.93,2.7-3,7.44-3.8,9-5.83,10.87-5.47,11.53,15.47-3.87,17.88-4.08,13.42-2.12,14.81-3.87,2.92-8.9,4.52-12.26S225.69,319.06,225.69,319.06Z" style="fill:#C9B59C;opacity:0.5"></path><path d="M213.79,294.76c.3.29,9.12,16.13,9.12,16.13s-5.18-2.34-5.4-3.73-.51-3.06-.51-3.06-4.67-.29-4.67-1.75A70.86,70.86,0,0,1,213.79,294.76Z" style="fill:#C9B59C"></path><path d="M203.36,291.51c-.33-.82-5.84,1.72-7.66,1.79s-12.84,1.53-13.94,1.83-3.28,3.35-3,3.42,3.28-.72,5.33-.36,4.52,4.09,5.47,3.5,2.48-3.5,3.94-3.72,2.92,1.53,3.94.8,3-1.29,3.57-2.14S203.36,291.51,203.36,291.51Z" style="fill:#C9B59C"></path><path d="M211.57,288.7c-.1.67-6.82,15-7.34,14.82s-.36-1.68,0-2.19,4.22-12.13,4.82-13C210.15,286.77,211.86,286.73,211.57,288.7Z" style="fill:#C9B59C"></path><path d="M197,343.14c-.59-.73-6.5,1.9-8.61,1.46s-7.74-12.85-8.22-13.82-1.9-2.29-2.05-1.12,6.23,14.79,6.52,15.42a10.82,10.82,0,0,0,3.21,3.11c.73.2,3.31-.63,4.33-1.06S198,344.31,197,343.14Z" style="fill:#C9B59C"></path><path d="M217.62,338c-.59.24-6.09-8.13-7.26-9.88s-5.21-7.56-5.47-9.31a78.38,78.38,0,0,0-4-11.31c-.36-.25-12.8,3.65-14.88,4.56s-9.81,3.32-11.42,3.36-4,0-3.94-.58,9.92-2.89,12.37-3.94,18-6.1,18.5-5.73,5,11.44,5.36,12.63,4.3,6.7,4.7,7.58S218.54,337.63,217.62,338Z" style="fill:#C9B59C;opacity:0.6000000000000001"></path><path d="M275,325.21c-.39-.38-19.48-5.16-20.68-5.69s-14.86-3.17-15.11-3.23-9.45,4.49-10.21,4.79-12.41,6.77-13,7.52-1.12,17.16-1.82,20.53-1.33,22.73-.64,23.62,17.18,4.73,19.42,5.42,17,6.31,18.12,6.15,11-9,13.37-10.7,10.5-5.17,10.62-6.95.9-14.44.53-17.6S276,326.2,275,325.21Z" style="fill:#C9B59C;opacity:0.6000000000000001"></path><path d="M272.12,365.86c.07-.43-20-4.94-21.46-5.56s-13.57-5.69-14.86-5.43-7.13,5.39-8.78,6.39-11.81,7-11.84,7.87,17,5.19,19.41,6.36,14,5.69,16.37,4.81,7.9-6.82,11.36-9.11A109.53,109.53,0,0,1,272.12,365.86Z" style="fill:#C9B59C;opacity:0.5"></path><path d="M272.11,335.82c.11.44-.55,20.63-.55,20.63s-3.61-5.2-3-6.65,1.27-3.22,1.27-3.22-4.29-3-3.45-4.35S272.11,335.82,272.11,335.82Z" style="fill:#C9B59C"></path><path d="M266.31,325.78c0-1-7-1.13-9-1.95s-14.38-4.76-15.68-5-17.21,6.85-16.13,7.17a12.47,12.47,0,0,0,3.87.28c1.84-.21,6.44-1.06,8.22-1.39,2.21-.4,4.81-1.09,5.18-.83,2,1.37,2.82,5.37,4.1,5.25s4.28-2.33,5.93-1.83,2.39,3,3.82,2.75,3.79.16,4.8-.41S266.31,325.78,266.31,325.78Z" style="fill:#C9B59C"></path><path d="M228.33,372.39c-.14-1-7.3-1.91-9.06-3.55s0-16.7.08-17.91-.49-3.27-1.3-2.24-2.55,17.69-2.63,18.46.69,4.22,1.27,4.82,3.53,1.3,4.75,1.46S228.55,374.05,228.33,372.39Z" style="fill:#C9B59C"></path><path d="M251.43,343c-.76.41-2.06,37.38-.47,37.3s2-20.41,2-22.33S253,342.19,251.43,343Z" style="fill:#C9B59C"></path><path d="M218.13,332.34c1.51.48,30.8,10,31.56,9.87s23.21-13.88,23.52-14.64-1.22-1-1.9-.53-20.56,11.61-21.62,11.68-29-7-29.67-7.28S217.21,332.05,218.13,332.34Z" style="fill:#C9B59C;opacity:0.6000000000000001"></path><g style="opacity:0.8"><path d="M283.9,213.19c.53-.13,19.35,5.6,20.65,5.77s14.56,3.9,14.8,4,5.6,9.76,6.09,10.41,7.16,12.19,7.32,13.17-7.89,15.28-9,18.53-10.56,20.17-11.62,20.57-17.16-4.79-19.43-5.36-17.81-3.34-18.7-4.07-5.2-12.78-6.34-15.46-6.12-11-5.31-12.63,6.85-12.23,8.8-14.75S282.52,213.51,283.9,213.19Z" style="fill:#fff;opacity:0.6000000000000001"></path><path d="M267.64,250.83c.16-.41,17.4,4.71,19,5s14.55,2.11,15.53,3,3.33,8.3,4.23,10,6.5,12.12,6.09,12.85-17.23-4.31-19.91-4.55-15-2.36-16.51-4.31-3.25-9.92-5-13.66S267.64,250.83,267.64,250.83Z" style="fill:#fff;opacity:0.5"></path><path d="M280.89,223.75c-.33.33-10.16,18-10.16,18s5.77-2.6,6-4.15.57-3.41.57-3.41,5.21-.33,5.21-1.95S280.89,223.75,280.89,223.75Z" style="fill:#fff"></path><path d="M292.52,220.13c.36-.91,6.5,1.92,8.53,2s14.31,1.71,15.53,2,3.66,3.74,3.33,3.82-3.66-.81-5.93-.41-5,4.56-6.1,3.91-2.76-3.91-4.39-4.15-3.25,1.71-4.39.9-3.33-1.45-4-2.39S292.52,220.13,292.52,220.13Z" style="fill:#fff"></path><path d="M283.37,217c.11.74,7.6,16.74,8.17,16.5s.41-1.87,0-2.44-4.7-13.52-5.37-14.47C285,214.85,283,214.81,283.37,217Z" style="fill:#fff"></path><path d="M299.56,277.65c.65-.81,7.24,2.13,9.59,1.63s8.62-14.31,9.16-15.39,2.12-2.55,2.28-1.25-6.94,16.48-7.26,17.18-2.77,3.25-3.58,3.47-3.68-.7-4.82-1.19S298.52,279,299.56,277.65Z" style="fill:#fff"></path><path d="M276.62,271.92c.66.27,6.79-9.06,8.09-11s5.81-8.42,6.1-10.37,4-12.31,4.43-12.6S309.51,242,311.82,243s10.94,3.7,12.73,3.74,4.43,0,4.39-.65-11.06-3.21-13.78-4.39-20-6.79-20.61-6.38-5.57,12.74-6,14.07-4.79,7.47-5.24,8.45S275.61,271.52,276.62,271.92Z" style="fill:#fff;opacity:0.6000000000000001"></path><path d="M211.09,285.28c-.47-.12-17.36,5-18.53,5.18S179.49,294,179.28,294s-5,8.76-5.47,9.34-6.42,10.95-6.57,11.82,7.08,13.72,8.1,16.64,9.49,18.09,10.44,18.46,15.39-4.31,17.43-4.82,16-3,16.79-3.65,4.66-11.47,5.69-13.88,5.49-9.9,4.76-11.33-6.15-11-7.9-13.24S212.33,285.57,211.09,285.28Z" style="fill:#fff;opacity:0.6000000000000001"></path><path d="M225.69,319.06c-.15-.37-15.62,4.23-17.08,4.45s-13.06,1.9-13.93,2.7-3,7.44-3.8,9-5.83,10.87-5.47,11.53,15.47-3.87,17.88-4.08,13.42-2.12,14.81-3.87,2.92-8.9,4.52-12.26S225.69,319.06,225.69,319.06Z" style="fill:#fff;opacity:0.5"></path><path d="M213.79,294.76c.3.29,9.12,16.13,9.12,16.13s-5.18-2.34-5.4-3.73-.51-3.06-.51-3.06-4.67-.29-4.67-1.75A70.86,70.86,0,0,1,213.79,294.76Z" style="fill:#fff"></path><path d="M203.36,291.51c-.33-.82-5.84,1.72-7.66,1.79s-12.84,1.53-13.94,1.83-3.28,3.35-3,3.42,3.28-.72,5.33-.36,4.52,4.09,5.47,3.5,2.48-3.5,3.94-3.72,2.92,1.53,3.94.8,3-1.29,3.57-2.14S203.36,291.51,203.36,291.51Z" style="fill:#fff"></path><path d="M211.57,288.7c-.1.67-6.82,15-7.34,14.82s-.36-1.68,0-2.19,4.22-12.13,4.82-13C210.15,286.77,211.86,286.73,211.57,288.7Z" style="fill:#fff"></path><path d="M197,343.14c-.59-.73-6.5,1.9-8.61,1.46s-7.74-12.85-8.22-13.82-1.9-2.29-2.05-1.12,6.23,14.79,6.52,15.42a10.82,10.82,0,0,0,3.21,3.11c.73.2,3.31-.63,4.33-1.06S198,344.31,197,343.14Z" style="fill:#fff"></path><path d="M217.62,338c-.59.24-6.09-8.13-7.26-9.88s-5.21-7.56-5.47-9.31a78.38,78.38,0,0,0-4-11.31c-.36-.25-12.8,3.65-14.88,4.56s-9.81,3.32-11.42,3.36-4,0-3.94-.58,9.92-2.89,12.37-3.94,18-6.1,18.5-5.73,5,11.44,5.36,12.63,4.3,6.7,4.7,7.58S218.54,337.63,217.62,338Z" style="fill:#fff;opacity:0.6000000000000001"></path><path d="M275,325.21c-.39-.38-19.48-5.16-20.68-5.69s-14.86-3.17-15.11-3.23-9.45,4.49-10.21,4.79-12.41,6.77-13,7.52-1.12,17.16-1.82,20.53-1.33,22.73-.64,23.62,17.18,4.73,19.42,5.42,17,6.31,18.12,6.15,11-9,13.37-10.7,10.5-5.17,10.62-6.95.9-14.44.53-17.6S276,326.2,275,325.21Z" style="fill:#fff;opacity:0.6000000000000001"></path><path d="M272.12,365.86c.07-.43-20-4.94-21.46-5.56s-13.57-5.69-14.86-5.43-7.13,5.39-8.78,6.39-11.81,7-11.84,7.87,17,5.19,19.41,6.36,14,5.69,16.37,4.81,7.9-6.82,11.36-9.11A109.53,109.53,0,0,1,272.12,365.86Z" style="fill:#fff;opacity:0.5"></path><path d="M272.11,335.82c.11.44-.55,20.63-.55,20.63s-3.61-5.2-3-6.65,1.27-3.22,1.27-3.22-4.29-3-3.45-4.35S272.11,335.82,272.11,335.82Z" style="fill:#fff"></path><path d="M266.31,325.78c0-1-7-1.13-9-1.95s-14.38-4.76-15.68-5-17.21,6.85-16.13,7.17a12.47,12.47,0,0,0,3.87.28c1.84-.21,6.44-1.06,8.22-1.39,2.21-.4,4.81-1.09,5.18-.83,2,1.37,2.82,5.37,4.1,5.25s4.28-2.33,5.93-1.83,2.39,3,3.82,2.75,3.79.16,4.8-.41S266.31,325.78,266.31,325.78Z" style="fill:#fff"></path><path d="M228.33,372.39c-.14-1-7.3-1.91-9.06-3.55s0-16.7.08-17.91-.49-3.27-1.3-2.24-2.55,17.69-2.63,18.46.69,4.22,1.27,4.82,3.53,1.3,4.75,1.46S228.55,374.05,228.33,372.39Z" style="fill:#fff"></path><path d="M251.43,343c-.76.41-2.06,37.38-.47,37.3s2-20.41,2-22.33S253,342.19,251.43,343Z" style="fill:#fff"></path><path d="M218.13,332.34c1.51.48,30.8,10,31.56,9.87s23.21-13.88,23.52-14.64-1.22-1-1.9-.53-20.56,11.61-21.62,11.68-29-7-29.67-7.28S217.21,332.05,218.13,332.34Z" style="fill:#fff;opacity:0.6000000000000001"></path></g><polygon points="357.21 176.7 355.12 176.7 352.23 236.95 349.69 236.95 337.87 388.79 335.49 388.79 329.89 452.49 170.11 452.49 164.51 388.79 162.13 388.79 150.31 236.95 147.77 236.95 144.88 176.7 142.79 176.7 141.69 151.84 358.31 151.84 357.21 176.7" style="opacity:0.6000000000000001"></polygon></g><polygon points="358.31 151.84 357.21 176.7 355.12 176.7 352.23 236.95 349.69 236.95 337.87 388.79 335.49 388.79 329.89 452.49 170.11 452.49 164.51 388.79 162.13 388.79 150.31 236.95 147.77 236.95 144.88 176.7 142.79 176.7 141.69 151.84 142.13 151.84 146.2 176.32 148.26 176.32 151.12 235.66 153.61 235.66 165.25 386.21 167.6 386.21 175.11 447.94 324.89 447.94 332.4 386.21 334.75 386.21 346.39 235.66 348.88 235.66 351.74 176.32 353.8 176.32 357.87 151.84 358.31 151.84" style="fill:#ebebeb"></polygon><g style="opacity:0.4"><path d="M148.26,176.32c67.57-1.34,135.91-1.35,203.48,0-67.57,1.34-135.91,1.33-203.48,0Z" style="fill:#fff"></path><path d="M153.61,235.69c64-1.34,128.76-1.35,192.78,0-64,1.34-128.76,1.33-192.78,0Z" style="fill:#fff"></path><path d="M167.79,386.16c54.66-1.34,110-1.35,164.61,0-54.66,1.35-109.95,1.34-164.61,0Z" style="fill:#fff"></path></g><polygon points="220.47 452.49 183.26 452.49 177.66 388.79 175.28 388.79 163.46 236.95 160.92 236.95 158.03 176.7 155.94 176.7 154.84 151.85 192.05 151.85 193.15 176.7 195.24 176.7 198.13 236.95 200.67 236.95 212.49 388.79 214.87 388.79 220.47 452.49" style="fill:#fff;opacity:0.1"></polygon><polygon points="291.32 452.49 318.53 452.49 324.13 388.79 326.51 388.79 338.33 236.95 340.87 236.95 343.76 176.7 345.85 176.7 346.95 151.85 319.74 151.85 318.64 176.7 316.55 176.7 313.66 236.95 311.12 236.95 299.3 388.79 296.92 388.79 291.32 452.49" style="fill:#fff;opacity:0.1"></polygon><polygon points="280.02 452.49 284.24 452.49 289.83 388.79 292.21 388.79 304.04 236.95 306.57 236.95 309.46 176.7 311.56 176.7 312.65 151.85 308.44 151.85 307.35 176.7 305.25 176.7 302.37 236.95 299.82 236.95 288 388.79 285.63 388.79 280.02 452.49" style="fill:#fff;opacity:0.1"></polygon><g style="opacity:0.5"><path d="M179,207a16.16,16.16,0,0,0,1.47,4.72,4,4,0,0,1,.33,2.69c-.66,2-3.74,2.47-4.74.56a3.77,3.77,0,0,1-.41-2.63c.49-2.51,1.5-4.78,1.81-7.3.76-3.37-1.11-6.47-1-9.87.29-2.54,1.3-4.88,1.62-7.38.52,2.14-.62,5.13-.62,7.45,0,2.47,1.05,4.8,1,7.37,0,3.49-2.15,6.41-2.43,9.77a3.24,3.24,0,0,0,.59,2.17,2,2,0,0,0,3.38-.42,3.65,3.65,0,0,0-.19-2.2,12.56,12.56,0,0,1-1-4.93Z" style="fill:#fff"></path><path d="M322.54,321.74c.2,2-.76,4-1.2,5.87a1.89,1.89,0,0,0,.24,1.6,2,2,0,0,0,2.88.39c2-2,.24-5-.57-7.21a18.08,18.08,0,0,1-1-4c-.21-2.76.9-5.56,1.62-8,.26,2.61-.8,5.29-.56,7.87a23.94,23.94,0,0,0,.68,3.85c.31,2.51,2.28,5.75.42,8a2.71,2.71,0,0,1-4.14-.49c-.88-1.38-.06-2.89.45-4.17a12.25,12.25,0,0,0,1.1-3.78Z" style="fill:#fff"></path><path d="M170.39,220.12a2,2,0,0,0-2.21,3.27c1.18,1.31,4.09.06,3.44-1.81a1.09,1.09,0,0,0-.15-.61,2,2,0,0,0-1.08-.85Zm0,0a2.46,2.46,0,0,1,1.16.8,1.21,1.21,0,0,1,.24.62v0c1,1.68-.9,3.62-2.67,3.39a2.5,2.5,0,1,1,1.28-4.77Z" style="fill:#fff"></path><path d="M285.93,252.12a2,2,0,0,0-2.2,3.27c1.17,1.31,4.09.06,3.43-1.81A1.11,1.11,0,0,0,287,253a2,2,0,0,0-1.08-.85Zm0,0a2.46,2.46,0,0,1,1.16.8,1.21,1.21,0,0,1,.24.62v0c1,1.68-.9,3.63-2.67,3.39a2.5,2.5,0,1,1,1.28-4.77Z" style="fill:#fff"></path><path d="M259.1,269.85a2,2,0,0,0-2.21,3.28c1.17,1.3,4.09.05,3.43-1.81a1.14,1.14,0,0,0-.15-.62,2.06,2.06,0,0,0-1.07-.85Zm0,0a2.38,2.38,0,0,1,1.15.8,1.25,1.25,0,0,1,.25.63v0c1,1.68-.9,3.62-2.68,3.38a2.5,2.5,0,1,1,1.29-4.77Z" style="fill:#fff"></path><path d="M194,363.18a2,2,0,0,0-2.21,3.27c1.17,1.31,4.09.05,3.43-1.81A1.09,1.09,0,0,0,195,364a2,2,0,0,0-1.07-.85Zm0,0a2.38,2.38,0,0,1,1.15.8,1.13,1.13,0,0,1,.24.62v0c1,1.68-.9,3.62-2.68,3.39a2.5,2.5,0,1,1,1.29-4.77Z" style="fill:#fff"></path><path d="M200.93,368.51c-.54-.15-.63.54-.24.52,0,0,0,0,.11.05s.35,0,.36-.2c0-.05,0-.09,0-.15s-.14-.15-.22-.22Zm0,0a1.69,1.69,0,0,1,.3.17s.12.23.09.12a.71.71,0,0,1-.13,1,.86.86,0,0,1-1.21-.13.77.77,0,0,1,1-1.16Z" style="fill:#fff"></path><path d="M267.32,278.4c-.54-.15-.63.54-.25.52,0,0,0,0,.12.05s.35,0,.35-.19c0,0,0-.07,0-.12s-.13-.17-.23-.26Zm0,0a2.67,2.67,0,0,1,.3.17l0,0,0,.13v0c.62.76-.69,1.7-1.33.87a.78.78,0,0,1,.95-1.17Z" style="fill:#fff"></path><path d="M200.66,201.82c-.54-.15-.64.53-.25.52,0,0,0,0,.11,0s.36,0,.36-.2c0-.05,0-.09,0-.16s-.14-.14-.22-.21Zm0,0a2.72,2.72,0,0,1,.3.16s.12.24.08.13c.62.77-.69,1.71-1.33.87a.77.77,0,0,1,.95-1.16Z" style="fill:#fff"></path><path d="M196.34,292.52c-.54-.15-.63.54-.24.52,0,0,0,0,.11,0s.35,0,.36-.2c0-.05,0-.09,0-.15s-.13-.15-.22-.22Zm0,0a1.39,1.39,0,0,1,.3.17s.12.23.09.12a.71.71,0,0,1-.13,1,.86.86,0,0,1-1.21-.13.77.77,0,0,1,1-1.16Z" style="fill:#fff"></path><path d="M312.43,398.55c-.55-.15-.64.54-.25.52,0,0,0,0,.11.05s.36,0,.36-.19c0-.06,0-.09,0-.16s-.14-.15-.22-.22Zm0,0a2.67,2.67,0,0,1,.3.17s.11.23.08.13c.62.76-.69,1.7-1.33.86a.77.77,0,0,1,.95-1.16Z" style="fill:#fff"></path><path d="M208.39,415.19c-.54-.15-.63.54-.25.52,0,0,0,0,.12.05s.35,0,.36-.2c0-.05,0-.09,0-.15s-.14-.15-.22-.22Zm0,0a1.69,1.69,0,0,1,.3.17s.12.23.09.12c.61.77-.7,1.71-1.34.87a.77.77,0,0,1,.95-1.16Z" style="fill:#fff"></path><path d="M314.72,183.72c-.55-.15-.64.54-.25.52,0,0,0,0,.11,0s.35,0,.36-.2c0-.05,0-.09,0-.15s-.14-.15-.22-.22Zm0,0a1.31,1.31,0,0,1,.29.17s.12.23.09.12c.61.77-.69,1.71-1.33.87a.77.77,0,0,1,1-1.16Z" style="fill:#fff"></path><path d="M338.24,205.26c-.55-.15-.64.53-.25.52,0,0,0,0,.11,0s.35,0,.36-.19c0,0,0-.09,0-.16s-.14-.14-.22-.21Zm0,0a1.57,1.57,0,0,1,.29.16s.12.24.09.13c.61.77-.69,1.71-1.33.87a.77.77,0,0,1,.95-1.16Z" style="fill:#fff"></path><path d="M295.19,404.13c-.54-.15-.63.53-.24.51,0,0,0,0,.11.05s.35,0,.36-.19c0-.05,0-.09,0-.16s-.13-.14-.22-.21Zm0,0a1.68,1.68,0,0,1,.3.16s.12.24.09.13c.61.77-.69,1.71-1.34.87a.77.77,0,0,1,.95-1.16Z" style="fill:#fff"></path><path d="M322.11,291.5a2,2,0,0,0-2.21,3.27c1.17,1.3,4.09.05,3.43-1.81a1.09,1.09,0,0,0-.15-.61,2,2,0,0,0-1.07-.85Zm0,0a2.32,2.32,0,0,1,1.15.8,1.21,1.21,0,0,1,.24.62v0c1,1.68-.89,3.62-2.67,3.39a2.5,2.5,0,1,1,1.29-4.77Z" style="fill:#fff"></path><path d="M313.37,424.74a2,2,0,0,0-2.21,3.28c1.17,1.3,4.09.05,3.44-1.81a1.66,1.66,0,0,0-1.23-1.47Zm0,0a2.46,2.46,0,0,1,1.16.8,1.21,1.21,0,0,1,.24.63v-.05c1,1.62-.9,3.65-2.67,3.39a2.5,2.5,0,1,1,1.28-4.77Z" style="fill:#fff"></path><path d="M235.52,394.74a2,2,0,0,0-2.21,3.27c1.17,1.31,4.09.06,3.43-1.81a1.09,1.09,0,0,0-.15-.61,2,2,0,0,0-1.07-.85Zm0,0a2.38,2.38,0,0,1,1.15.8,1.13,1.13,0,0,1,.24.62v0c1,1.68-.9,3.62-2.68,3.39a2.5,2.5,0,1,1,1.29-4.77Z" style="fill:#fff"></path><path d="M191.4,424.74a2,2,0,0,0-2.21,3.28c1.17,1.3,4.09.05,3.43-1.81a1.12,1.12,0,0,0-.15-.62,2,2,0,0,0-1.07-.85Zm0,0a2.38,2.38,0,0,1,1.15.8,1.13,1.13,0,0,1,.24.63v-.05c1,1.68-.89,3.63-2.67,3.39a2.5,2.5,0,1,1,1.29-4.77Z" style="fill:#fff"></path><path d="M200.19,303.83A2,2,0,0,0,198,307.1c1.17,1.3,4.09,0,3.43-1.81a1.09,1.09,0,0,0-.15-.61,2,2,0,0,0-1.07-.85Zm0,0a2.32,2.32,0,0,1,1.15.8,1.11,1.11,0,0,1,.25.62v0c1,1.68-.9,3.62-2.67,3.38a2.49,2.49,0,1,1,1.28-4.76Z" style="fill:#fff"></path><path d="M309.38,185.73a2,2,0,0,0-2.21,3.27c1.17,1.3,4.09.05,3.44-1.81a1.09,1.09,0,0,0-.15-.61,2,2,0,0,0-1.08-.85Zm0,0a2.32,2.32,0,0,1,1.16.8,1.18,1.18,0,0,1,.24.62v0c1,1.68-.9,3.62-2.67,3.38a2.49,2.49,0,1,1,1.28-4.76Z" style="fill:#fff"></path><path d="M328.64,296.54a.88.88,0,0,0-.93,1.49c.47.44,1.74.1,1.5-.77a.75.75,0,0,0-.57-.72Zm0,0a1.26,1.26,0,0,1,.6.39c.07,0,.17.4.14.28.86,1.37-1.35,2.75-2.38,1.46a1.38,1.38,0,0,1,1.64-2.13Z" style="fill:#fff"></path><path d="M283.75,221.15a.88.88,0,0,0-.93,1.49c.47.44,1.74.1,1.5-.77a.75.75,0,0,0-.57-.72Zm0,0a1.32,1.32,0,0,1,.6.38c.07.05.17.41.14.29.86,1.37-1.35,2.75-2.38,1.46a1.38,1.38,0,0,1,1.64-2.13Z" style="fill:#fff"></path><path d="M181.74,375.24a.89.89,0,0,0-.94,1.49c.47.45,1.74.1,1.51-.77a.77.77,0,0,0-.57-.72Zm0,0a1.33,1.33,0,0,1,.54.33.87.87,0,0,1,.21.39v0c.85,1.36-1.36,2.75-2.38,1.45a1.38,1.38,0,0,1,1.64-2.13Z" style="fill:#fff"></path><path d="M262.66,423.54a.88.88,0,0,0-.93,1.49c.47.45,1.74.1,1.5-.76a.77.77,0,0,0-.57-.73Zm0,0a1.32,1.32,0,0,1,.55.34.7.7,0,0,1,.2.38v0c.86,1.37-1.35,2.75-2.38,1.46a1.39,1.39,0,0,1,1.64-2.14Z" style="fill:#fff"></path><path d="M200.62,431.55a.89.89,0,0,0-.94,1.49c.47.45,1.74.1,1.5-.77a.76.76,0,0,0-.56-.72Zm0,0a1.33,1.33,0,0,1,.54.33.77.77,0,0,1,.2.39v0c.85,1.36-1.36,2.75-2.38,1.45a1.38,1.38,0,0,1,1.64-2.13Z" style="fill:#fff"></path><path d="M307.3,212.14a.89.89,0,0,0-.94,1.49c.48.44,1.75.1,1.51-.77a.77.77,0,0,0-.57-.72Zm0,0a1.21,1.21,0,0,1,.54.33.82.82,0,0,1,.21.39v0c.85,1.36-1.35,2.75-2.38,1.45a1.38,1.38,0,0,1,1.64-2.13Z" style="fill:#fff"></path><path d="M316.65,306.39a.89.89,0,0,0-.94,1.49c.47.44,1.74.1,1.51-.77a.77.77,0,0,0-.57-.72Zm0,0a1.26,1.26,0,0,1,.6.39c.06,0,.17.4.14.29.85,1.36-1.35,2.74-2.38,1.45a1.38,1.38,0,0,1,1.64-2.13Z" style="fill:#fff"></path><path d="M163.36,214.28a.89.89,0,0,0-.94,1.49c.47.44,1.74.1,1.51-.77a.76.76,0,0,0-.57-.72Zm0,0a1.26,1.26,0,0,1,.6.39c.06,0,.16.4.14.28.85,1.37-1.36,2.75-2.38,1.46a1.38,1.38,0,0,1,1.64-2.13Z" style="fill:#fff"></path><path d="M288.84,406.66a.88.88,0,0,0-.93,1.49c.47.44,1.74.1,1.5-.77a.75.75,0,0,0-.57-.72Zm0,0a1.31,1.31,0,0,1,.55.33.74.74,0,0,1,.2.38v0c.86,1.37-1.35,2.75-2.38,1.46a1.38,1.38,0,0,1,1.64-2.13Z" style="fill:#fff"></path><path d="M231,349.26a.89.89,0,0,0-.94,1.49c.47.45,1.74.1,1.51-.76a.77.77,0,0,0-.57-.73Zm0,0a1.14,1.14,0,0,1,.54.34.78.78,0,0,1,.21.38v0c.85,1.36-1.35,2.75-2.38,1.46a1.39,1.39,0,0,1,1.64-2.14Z" style="fill:#fff"></path><path d="M223.63,248.37a.89.89,0,0,0-.94,1.49c.47.44,1.74.1,1.5-.77a.76.76,0,0,0-.56-.72Zm0,0a1.33,1.33,0,0,1,.54.33.73.73,0,0,1,.2.39v0c.86,1.36-1.35,2.75-2.38,1.45a1.39,1.39,0,0,1,1.65-2.13Z" style="fill:#fff"></path><path d="M189.43,308.28a.89.89,0,0,0-.94,1.49c.47.45,1.74.1,1.5-.76a.77.77,0,0,0-.56-.73Zm0,0a1.45,1.45,0,0,1,.59.39c.07,0,.17.4.14.29.86,1.36-1.35,2.75-2.37,1.46a1.39,1.39,0,0,1,1.64-2.14Z" style="fill:#fff"></path></g><path d="M362.54,144H137.46c.65,2.6,1.33,5.21,2,7.81h221C361.21,149.25,361.89,146.64,362.54,144Z" style="fill:#ebebeb"></path><path d="M142.88,144.89c1.65,2,2.16,4.09,1.52,6.11-1.68-2-2.2-4.09-1.52-6.11Z" style="opacity:0.1"></path><path d="M149.37,144.89a6.25,6.25,0,0,1,1.41,6.11c-1.64-2-2.13-4.09-1.41-6.11Z" style="opacity:0.1"></path><path d="M155.86,144.89a6.22,6.22,0,0,1,1.31,6.11c-1.61-2-2.06-4.09-1.31-6.11Z" style="opacity:0.1"></path><path d="M162.34,144.89a6.15,6.15,0,0,1,1.22,6.11,6,6,0,0,1-1.22-6.11Z" style="opacity:0.1"></path><path d="M168.83,144.89a6.09,6.09,0,0,1,1.11,6.11,6,6,0,0,1-1.11-6.11Z" style="opacity:0.1"></path><path d="M175.32,144.89a6,6,0,0,1,1,6.11,5.92,5.92,0,0,1-1-6.11Z" style="opacity:0.1"></path><path d="M181.8,144.89a6,6,0,0,1,.92,6.11,5.88,5.88,0,0,1-.92-6.11Z" style="opacity:0.1"></path><path d="M188.29,144.89a6,6,0,0,1,.81,6.11,5.87,5.87,0,0,1-.81-6.11Z" style="opacity:0.1"></path><path d="M194.78,144.89a5.94,5.94,0,0,1,.71,6.11,5.81,5.81,0,0,1-.71-6.11Z" style="opacity:0.1"></path><path d="M201.26,144.89a5.9,5.9,0,0,1,.61,6.11,5.83,5.83,0,0,1-.61-6.11Z" style="opacity:0.1"></path><path d="M207.75,144.89a5.87,5.87,0,0,1,.51,6.11,5.79,5.79,0,0,1-.51-6.11Z" style="opacity:0.1"></path><path d="M214.24,144.89a5.88,5.88,0,0,1,.41,6.11,5.79,5.79,0,0,1-.41-6.11Z" style="opacity:0.1"></path><path d="M220.73,144.89A5.84,5.84,0,0,1,221,151a5.77,5.77,0,0,1-.3-6.11Z" style="opacity:0.1"></path><path d="M227.21,144.89a5.83,5.83,0,0,1,.21,6.11,5.79,5.79,0,0,1-.21-6.11Z" style="opacity:0.1"></path><path d="M233.87,144.89a5.83,5.83,0,0,1,.39,6.11,5.81,5.81,0,0,1-.39-6.11Z" style="opacity:0.1"></path><path d="M240.35,144.89a5.8,5.8,0,0,1,.3,6.11,5.8,5.8,0,0,1-.3-6.11Z" style="opacity:0.1"></path><path d="M246.84,144.89A5.81,5.81,0,0,1,247,151a5.79,5.79,0,0,1-.2-6.11Z" style="opacity:0.1"></path><path d="M253.33,144.89a5.78,5.78,0,0,1,.09,6.11,5.8,5.8,0,0,1-.09-6.11Z" style="opacity:0.1"></path><path d="M259.81,144.89a5.78,5.78,0,0,1,0,6.11,5.82,5.82,0,0,1,0-6.11Z" style="opacity:0.1"></path><path d="M266.3,144.89a5.78,5.78,0,0,1-.1,6.11,5.8,5.8,0,0,1,.1-6.11Z" style="opacity:0.1"></path><path d="M272.79,144.89a5.79,5.79,0,0,1-.21,6.11,5.83,5.83,0,0,1,.21-6.11Z" style="opacity:0.1"></path><path d="M279.27,144.89A5.77,5.77,0,0,1,279,151a5.84,5.84,0,0,1,.3-6.11Z" style="opacity:0.1"></path><path d="M285.76,144.89a5.79,5.79,0,0,1-.41,6.11,5.88,5.88,0,0,1,.41-6.11Z" style="opacity:0.1"></path><path d="M292.25,144.89a5.79,5.79,0,0,1-.51,6.11,5.87,5.87,0,0,1,.51-6.11Z" style="opacity:0.1"></path><path d="M298.74,144.89a5.83,5.83,0,0,1-.61,6.11,5.9,5.9,0,0,1,.61-6.11Z" style="opacity:0.1"></path><path d="M305.22,144.89a5.81,5.81,0,0,1-.71,6.11,5.94,5.94,0,0,1,.71-6.11Z" style="opacity:0.1"></path><path d="M311.71,144.89a5.87,5.87,0,0,1-.81,6.11,6,6,0,0,1,.81-6.11Z" style="opacity:0.1"></path><path d="M318.2,144.89a5.9,5.9,0,0,1-.91,6.11,6,6,0,0,1,.91-6.11Z" style="opacity:0.1"></path><path d="M324.68,144.89a5.92,5.92,0,0,1-1,6.11,6,6,0,0,1,1-6.11Z" style="opacity:0.1"></path><path d="M331.17,144.89a6,6,0,0,1-1.11,6.11,6.09,6.09,0,0,1,1.11-6.11Z" style="opacity:0.1"></path><path d="M337.66,144.89a6,6,0,0,1-1.22,6.11,6.15,6.15,0,0,1,1.22-6.11Z" style="opacity:0.1"></path><path d="M344.14,144.89c.75,2,.3,4.09-1.31,6.11a6.22,6.22,0,0,1,1.31-6.11Z" style="opacity:0.1"></path><path d="M350.63,144.89c.72,2,.23,4.09-1.41,6.11a6.25,6.25,0,0,1,1.41-6.11Z" style="opacity:0.1"></path><path d="M357.12,144.89c.68,2,.16,4.09-1.52,6.11-.64-2-.13-4.09,1.52-6.11Z" style="opacity:0.1"></path><path d="M256.17,355.19s4.36-7.87,2.18-21.08S246.44,306,249,281.65s13.1-30.5,13.1-30.5,28.58,7.16,28.58,52S263.71,355.19,256.17,355.19Z" style="fill:#C9B59C"></path><path d="M244.86,355.19s6-8.7,2.94-23c-3.39-15.64-12.05-32.32-7.91-54.84,3.44-18.68,10.14-28.17,10.14-28.17s-42.06-.51-40.7,53C210.72,357,244.86,355.19,244.86,355.19Z" style="fill:#C9B59C"></path><g style="opacity:0.7000000000000001"><path d="M256.17,355.19s4.36-7.87,2.18-21.08S246.44,306,249,281.65s13.1-30.5,13.1-30.5,28.58,7.16,28.58,52S263.71,355.19,256.17,355.19Z"></path><path d="M244.86,355.19s6-8.7,2.94-23c-3.39-15.64-12.05-32.32-7.91-54.84,3.44-18.68,10.14-28.17,10.14-28.17s-42.06-.51-40.7,53C210.72,357,244.86,355.19,244.86,355.19Z"></path></g><text></text><g style="opacity:0.8"><g style="opacity:0.6000000000000001"><path d="M242.09,139.41c.08.41-1.3,3.48-2.9,7-1.87,4.06-4,8.68-4.52,10.3-.22.7-.81,2.12-1.61,3.87a3.1,3.1,0,0,0-.66-.19,7.81,7.81,0,0,0-2.52-.06,13.61,13.61,0,0,0-2.28.44c-2.17.56-4.58,1.52-7.14,2.45a35.83,35.83,0,0,1-10.68,2.45,60.11,60.11,0,0,1-16.31-2.27c-.35-.1-.69-.21-1.05-.3-.84-.24-1.68-.5-2.51-.77-1.37-.45-2.71-.94-4-1.46-1.07-2.45-2.06-4.74-2.52-5.7-1.15-2.38-6-9.78-5.37-11.27.28-.6,1.27-2.61,2.47-4.94,1.74-3.38,3.92-7.45,4.9-8.87,1.68-2.37,9.52-18.55,10.76-18.91.48-.13,17.86,4.28,19.05,4.38s13.43,2.93,13.65,3,5.52,8.64,6,9.21S241.89,138.52,242.09,139.41Z" style="fill:#fff;opacity:0.6000000000000001"></path><path d="M220.46,163.19a35.83,35.83,0,0,1-10.68,2.45,60.11,60.11,0,0,1-16.31-2.27c-.35-.1-.69-.21-1.05-.3-.84-.24-1.68-.5-2.51-.77-1.1-2.85-2.31-6.62-3.46-8.77-1.8-3.33-3.47-7.4-3.47-7.4.11-.32,11.51,2.44,15.92,3.39.81.18,1.38.29,1.61.31l.47,0,.74.08c3.13.31,10.72,1.12,12.65,1.76a1.35,1.35,0,0,1,.41.18c.93.78,3.39,7.41,4.28,8.93C219.28,161.21,219.8,162.08,220.46,163.19Z" style="fill:#fff;opacity:0.5"></path><path d="M193.88,120.91c-.28.31-8.48,16.8-8.48,16.8s5.14-2.62,5.3-4,.37-3.13.37-3.13,4.72-.52,4.65-2A72.25,72.25,0,0,0,193.88,120.91Z" style="fill:#fff"></path><path d="M204.31,117.11c.29-.85,6,1.47,7.86,1.45s13.1.94,14.22,1.19,3.49,3.24,3.2,3.33-3.37-.58-5.42-.11-4.39,4.36-5.38,3.81-2.69-3.43-4.18-3.58-2.89,1.69-4,1-3.1-1.17-3.73-2S204.31,117.11,204.31,117.11Z" style="fill:#fff"></path><path d="M195.85,114.66c.13.67,7.64,14.92,8.14,14.68s.29-1.72-.1-2.23S199,115,198.38,114.17C197.2,112.63,195.45,112.68,195.85,114.66Z" style="fill:#fff"></path><path d="M231.69,154.61c.09.46-.74,2.87-1.81,5.69a13.61,13.61,0,0,0-2.28.44c1.08-2.45,1.91-4.51,2.08-4.89C230.12,154.83,231.49,153.43,231.69,154.61Z" style="fill:#fff"></path><path d="M238.59,139.2c.06.6-2.34.74-4,.78s-9.59-2-11.75-2.86-15-4.18-15.31-3.91-3.32,9.87-3.5,11.67a19.3,19.3,0,0,1-2.34,5.07l-.25.43c-1,1.74-2,3.39-2.52,4.2-.79,1.32-3.69,6.23-5.48,8.79-.35-.1-.69-.21-1.05-.3,1.27-3.46,4.86-10.52,5.15-11.21.13-.33.67-1.24,1.33-2.34l.71-1.19a30.75,30.75,0,0,0,2.36-4.39c.31-1.23,4.31-12.67,4.85-13.06s16.5,4,19,4.91S238.53,138.61,238.59,139.2Z" style="fill:#fff;opacity:0.6000000000000001"></path><path d="M279.84,99c.24-.4,14.79-8.36,15.66-9s11.45-5.75,11.64-5.85,8.67,1.64,9.35,1.73,11.57,2.88,12.25,3.36,4.57,13.76,5.86,16.36,5.92,18.26,5.54,19.14-13,7.51-14.68,8.55S313,142,312,142.1s-10.9-5-13.19-5.89-9.66-2-10.14-3.4-3.81-11.59-4.17-14.25S279.22,100,279.84,99Z" style="fill:#fff;opacity:0.6000000000000001"></path><path d="M290.83,131.53c-.15-.34,15.22-8.27,16.33-9.11s9.85-7.53,11-7.59,7,2.88,8.52,3.35,11.14,3.22,11.34,3.89-12.76,7.85-14.48,9.33-10.24,7.63-12.33,7.41-7.9-3.89-11.21-5A90.75,90.75,0,0,0,290.83,131.53Z" style="fill:#fff;opacity:0.5"></path><path d="M284.44,107c0,.39,4.84,16.72,4.84,16.72s1.84-5,1.05-6.07-1.72-2.36-1.72-2.36,2.87-3.33,1.89-4.29A66,66,0,0,0,284.44,107Z" style="fill:#fff"></path><path d="M287,97.59c-.24-.79,5.49-2.41,6.92-3.5s10.72-6.94,11.73-7.42,15.5,1.92,14.69,2.42a10.52,10.52,0,0,1-3.1,1c-1.54.22-5.48.5-7,.62-1.89.14-4.16.13-4.41.42-1.34,1.55-1.15,5-2.22,5.16s-4-1-5.23-.23-1.31,2.94-2.53,3-3.06.94-4,.69A53.26,53.26,0,0,1,287,97.59Z" style="fill:#fff"></path><path d="M327.94,127.53c-.1-.87,5.55-3.11,6.64-4.82s-3.55-13.63-3.88-14.6-.29-2.77.59-2.1,5.84,13.89,6.08,14.5a10.25,10.25,0,0,1,0,4.2c-.35.62-2.6,1.81-3.56,2.21S328.12,128.93,327.94,127.53Z" style="fill:#fff"></path><path d="M302.84,108.47c.71.17,9.64,30.06,8.33,30.34s-6-16.23-6.38-17.8S301.43,108.14,302.84,108.47Z" style="fill:#fff"></path><path d="M327.74,92.69c-1.13.71-23,14.74-23.64,14.77s-21.9-6.38-22.31-6.93.78-1.07,1.43-.84,19.25,5.09,20.13,4.93S325.51,92.75,326,92.36,328.43,92.26,327.74,92.69Z" style="fill:#fff;opacity:0.6000000000000001"></path></g><path d="M289.32,144h-.9A2.71,2.71,0,0,1,289.32,144Z" style="fill:#C9B59C;opacity:0.19"></path><path d="M44.84,140.24c.06-.12,0-.05,0,0Z" style="fill:#455a64"></path><path d="M52.93,108.6a5.32,5.32,0,0,0-.27-4.21A4.62,4.62,0,0,0,46.1,103a4.4,4.4,0,0,0-1.94,3.4,5.39,5.39,0,0,0,1.28,3.73A4,4,0,0,0,49,111.6a3.13,3.13,0,0,0,1-.33,1.8,1.8,0,0,0,.85-.19,2.75,2.75,0,0,0,.38-.2l.23-.19.12-.08c.06,0,.11-.1.16-.14A4.79,4.79,0,0,0,52.93,108.6Z" style="fill:#C9B59C"></path><path d="M52.93,108.6a5.32,5.32,0,0,0-.27-4.21A4.62,4.62,0,0,0,46.1,103a4.4,4.4,0,0,0-1.94,3.4,5.39,5.39,0,0,0,1.28,3.73A4,4,0,0,0,49,111.6a3.13,3.13,0,0,0,1-.33,1.8,1.8,0,0,0,.85-.19,2.75,2.75,0,0,0,.38-.2l.23-.19.12-.08c.06,0,.11-.1.16-.14A4.79,4.79,0,0,0,52.93,108.6Z" style="opacity:0.6000000000000001"></path><path d="M49.48,106.2a2.5,2.5,0,0,0-.13-2,2.15,2.15,0,0,0-3.06-.66,2,2,0,0,0-.91,1.58,2.5,2.5,0,0,0,.6,1.74,1.89,1.89,0,0,0,1.66.71,1.92,1.92,0,0,0,.48-.15.8.8,0,0,0,.39-.09l.18-.1a.44.44,0,0,0,.11-.09l.05,0,.08-.07A2.26,2.26,0,0,0,49.48,106.2Z" style="fill:#C9B59C;opacity:0.30000000000000004"></path><path d="M438.48,113.34a5.31,5.31,0,0,0-.27-4.21,4.61,4.61,0,0,0-6.56-1.43,4.39,4.39,0,0,0-1.94,3.39,5.37,5.37,0,0,0,1.28,3.73,4,4,0,0,0,3.56,1.51,3.28,3.28,0,0,0,1-.32,1.78,1.78,0,0,0,.85-.19c.13-.06.26-.14.38-.21a1.92,1.92,0,0,0,.23-.19.49.49,0,0,0,.12-.08l.17-.14A4.8,4.8,0,0,0,438.48,113.34Z" style="fill:#C9B59C"></path><path d="M438.48,113.34a5.31,5.31,0,0,0-.27-4.21,4.61,4.61,0,0,0-6.56-1.43,4.39,4.39,0,0,0-1.94,3.39,5.37,5.37,0,0,0,1.28,3.73,4,4,0,0,0,3.56,1.51,3.28,3.28,0,0,0,1-.32,1.78,1.78,0,0,0,.85-.19c.13-.06.26-.14.38-.21a1.92,1.92,0,0,0,.23-.19.49.49,0,0,0,.12-.08l.17-.14A4.8,4.8,0,0,0,438.48,113.34Z" style="opacity:0.6000000000000001"></path><path d="M435,110.93a2.47,2.47,0,0,0-.13-2,2.15,2.15,0,0,0-3.06-.67,2,2,0,0,0-.91,1.58,2.54,2.54,0,0,0,.6,1.75,1.89,1.89,0,0,0,1.66.7,1.34,1.34,0,0,0,.48-.15.86.86,0,0,0,.4-.09,1,1,0,0,0,.17-.1l.11-.08,0,0,.08-.07A2.19,2.19,0,0,0,435,110.93Z" style="fill:#C9B59C;opacity:0.30000000000000004"></path><path d="M121.68,154.93a6.87,6.87,0,0,0-.35-5.46,6,6,0,0,0-8.51-1.86,5.72,5.72,0,0,0-2.52,4.4,6.93,6.93,0,0,0,1.66,4.85,5.25,5.25,0,0,0,4.62,2,4.33,4.33,0,0,0,1.32-.42,2.27,2.27,0,0,0,1.11-.25c.17-.07.34-.18.49-.26l.3-.25.15-.11a1.32,1.32,0,0,0,.22-.18A6.16,6.16,0,0,0,121.68,154.93Z" style="fill:#C9B59C"></path><path d="M121.68,154.93a6.87,6.87,0,0,0-.35-5.46,6,6,0,0,0-8.51-1.86,5.72,5.72,0,0,0-2.52,4.4,6.93,6.93,0,0,0,1.66,4.85,5.25,5.25,0,0,0,4.62,2,4.33,4.33,0,0,0,1.32-.42,2.27,2.27,0,0,0,1.11-.25c.17-.07.34-.18.49-.26l.3-.25.15-.11a1.32,1.32,0,0,0,.22-.18A6.16,6.16,0,0,0,121.68,154.93Z" style="opacity:0.6000000000000001"></path><path d="M117.2,151.81a3.19,3.19,0,0,0-.17-2.55,2.79,2.79,0,0,0-4-.87,2.7,2.7,0,0,0-1.18,2.06,3.25,3.25,0,0,0,.78,2.26,2.44,2.44,0,0,0,2.16.92,2,2,0,0,0,.62-.2,1,1,0,0,0,.51-.12,1.67,1.67,0,0,0,.23-.12.75.75,0,0,0,.14-.12s0,0,.07,0l.1-.09A2.79,2.79,0,0,0,117.2,151.81Z" style="fill:#C9B59C;opacity:0.30000000000000004"></path><path d="M405.19,83.27A4.1,4.1,0,0,0,405,80a3.6,3.6,0,0,0-5.13-1.12,3.39,3.39,0,0,0-1.52,2.65,4.16,4.16,0,0,0,1,2.92,3.14,3.14,0,0,0,2.78,1.19,2.43,2.43,0,0,0,.8-.26,1.36,1.36,0,0,0,.67-.15,2.19,2.19,0,0,0,.3-.16,1.19,1.19,0,0,0,.18-.15l.09-.06a.69.69,0,0,0,.13-.11A3.58,3.58,0,0,0,405.19,83.27Z" style="fill:#C9B59C"></path><path d="M405.19,83.27A4.1,4.1,0,0,0,405,80a3.6,3.6,0,0,0-5.13-1.12,3.39,3.39,0,0,0-1.52,2.65,4.16,4.16,0,0,0,1,2.92,3.14,3.14,0,0,0,2.78,1.19,2.43,2.43,0,0,0,.8-.26,1.36,1.36,0,0,0,.67-.15,2.19,2.19,0,0,0,.3-.16,1.19,1.19,0,0,0,.18-.15l.09-.06a.69.69,0,0,0,.13-.11A3.58,3.58,0,0,0,405.19,83.27Z" style="opacity:0.6000000000000001"></path><path d="M402.49,81.39a2,2,0,0,0-.1-1.54,1.68,1.68,0,0,0-2.4-.52,1.63,1.63,0,0,0-.71,1.24,2,2,0,0,0,.47,1.36,1.48,1.48,0,0,0,1.3.56,1.15,1.15,0,0,0,.37-.12.74.74,0,0,0,.32-.07l.13-.08.09-.07,0,0,.06-.05A1.68,1.68,0,0,0,402.49,81.39Z" style="fill:#C9B59C;opacity:0.30000000000000004"></path><path d="M420.64,117a6.87,6.87,0,0,0-.36-5.46,6,6,0,0,0-8.51-1.86,5.68,5.68,0,0,0-2.51,4.41,6.93,6.93,0,0,0,1.66,4.84,5.25,5.25,0,0,0,4.61,2,4.71,4.71,0,0,0,1.33-.43,2.29,2.29,0,0,0,1.11-.25,3.67,3.67,0,0,0,.48-.26,2.42,2.42,0,0,0,.31-.25l.15-.11c.08,0,.15-.12.22-.17A6.31,6.31,0,0,0,420.64,117Z" style="fill:#C9B59C"></path><path d="M420.64,117a6.87,6.87,0,0,0-.36-5.46,6,6,0,0,0-8.51-1.86,5.68,5.68,0,0,0-2.51,4.41,6.93,6.93,0,0,0,1.66,4.84,5.25,5.25,0,0,0,4.61,2,4.71,4.71,0,0,0,1.33-.43,2.29,2.29,0,0,0,1.11-.25,3.67,3.67,0,0,0,.48-.26,2.42,2.42,0,0,0,.31-.25l.15-.11c.08,0,.15-.12.22-.17A6.31,6.31,0,0,0,420.64,117Z" style="opacity:0.6000000000000001"></path><path d="M416.15,113.92a3.19,3.19,0,0,0-.16-2.55,2.78,2.78,0,0,0-4-.86,2.61,2.61,0,0,0-1.18,2,3.2,3.2,0,0,0,.78,2.26,2.43,2.43,0,0,0,2.15.92,2,2,0,0,0,.62-.2,1.11,1.11,0,0,0,.52-.11l.23-.13.14-.11.07,0,.1-.08A2.8,2.8,0,0,0,416.15,113.92Z" style="fill:#C9B59C;opacity:0.30000000000000004"></path><path d="M255.31,77.83a6.87,6.87,0,0,0-.36-5.46,6,6,0,0,0-8.51-1.86,5.7,5.7,0,0,0-2.52,4.4,7,7,0,0,0,1.67,4.85,5.24,5.24,0,0,0,4.61,2,4.39,4.39,0,0,0,1.33-.42,2.41,2.41,0,0,0,1.11-.25,4.53,4.53,0,0,0,.48-.27,3.24,3.24,0,0,0,.31-.24l.15-.11a1.92,1.92,0,0,0,.22-.18A6.28,6.28,0,0,0,255.31,77.83Z" style="fill:#C9B59C"></path><path d="M255.31,77.83a6.87,6.87,0,0,0-.36-5.46,6,6,0,0,0-8.51-1.86,5.7,5.7,0,0,0-2.52,4.4,7,7,0,0,0,1.67,4.85,5.24,5.24,0,0,0,4.61,2,4.39,4.39,0,0,0,1.33-.42,2.41,2.41,0,0,0,1.11-.25,4.53,4.53,0,0,0,.48-.27,3.24,3.24,0,0,0,.31-.24l.15-.11a1.92,1.92,0,0,0,.22-.18A6.28,6.28,0,0,0,255.31,77.83Z" style="opacity:0.6000000000000001"></path><path d="M250.82,74.71a3.23,3.23,0,0,0-.16-2.55,2.8,2.8,0,0,0-4-.87,2.65,2.65,0,0,0-1.17,2.06,3.24,3.24,0,0,0,.77,2.26,2.46,2.46,0,0,0,2.16.92,2.25,2.25,0,0,0,.62-.2,1,1,0,0,0,.52-.12,1.55,1.55,0,0,0,.22-.12A.79.79,0,0,0,250,76l.07,0,.1-.09A2.76,2.76,0,0,0,250.82,74.71Z" style="fill:#C9B59C;opacity:0.30000000000000004"></path><path d="M49.09,143.8A3.68,3.68,0,0,0,51,142.2a4,4,0,0,0,.61-2.43v-.08l-.06-.4a1.67,1.67,0,0,0-.1-.43,3.07,3.07,0,0,0-.53-1.09,2.38,2.38,0,0,0-.43-.41,1,1,0,0,0-.75-.09.87.87,0,0,0-.14-.12l-.22-.12c-.12-.07-.47-.15-.22-.11s.08,0,0,0a3,3,0,0,0-3-.06,3.23,3.23,0,0,0-1.69,2,4.09,4.09,0,0,0,.25,2.94A3.6,3.6,0,0,0,49.09,143.8Z" style="fill:#C9B59C"></path><path d="M49.09,143.8A3.68,3.68,0,0,0,51,142.2a4,4,0,0,0,.61-2.43v-.08l-.06-.4a1.67,1.67,0,0,0-.1-.43,3.07,3.07,0,0,0-.53-1.09,2.38,2.38,0,0,0-.43-.41,1,1,0,0,0-.75-.09.87.87,0,0,0-.14-.12l-.22-.12c-.12-.07-.47-.15-.22-.11s.08,0,0,0a3,3,0,0,0-3-.06,3.23,3.23,0,0,0-1.69,2,4.09,4.09,0,0,0,.25,2.94A3.6,3.6,0,0,0,49.09,143.8Z" style="opacity:0.6000000000000001"></path><path d="M47.35,141.1a1.92,1.92,0,0,0,1-.83,2.17,2.17,0,0,0,.32-1.27V139l0-.2a.65.65,0,0,0-.06-.23,1.62,1.62,0,0,0-.27-.56,1.2,1.2,0,0,0-.23-.22.57.57,0,0,0-.39,0l-.07-.07-.11-.06c-.07,0-.25-.08-.12-.06s0,0,0,0a1.58,1.58,0,0,0-1.56,0,1.77,1.77,0,0,0-.89,1,2.13,2.13,0,0,0,.14,1.53A1.88,1.88,0,0,0,47.35,141.1Z" style="fill:#C9B59C;opacity:0.30000000000000004"></path><path d="M118.56,93.94a3.62,3.62,0,0,0,1.85-1.6,4,4,0,0,0,.61-2.43v-.08l-.06-.4a1.72,1.72,0,0,0-.09-.44,3,3,0,0,0-.54-1.08,2.09,2.09,0,0,0-.43-.41,1,1,0,0,0-.75-.09.87.87,0,0,0-.14-.12l-.22-.13c-.11-.06-.47-.14-.21-.1s.08,0,0,0a3,3,0,0,0-3-.06,3.27,3.27,0,0,0-1.7,2,4,4,0,0,0,.26,2.93A3.58,3.58,0,0,0,118.56,93.94Z" style="fill:#C9B59C"></path><path d="M118.56,93.94a3.62,3.62,0,0,0,1.85-1.6,4,4,0,0,0,.61-2.43v-.08l-.06-.4a1.72,1.72,0,0,0-.09-.44,3,3,0,0,0-.54-1.08,2.09,2.09,0,0,0-.43-.41,1,1,0,0,0-.75-.09.87.87,0,0,0-.14-.12l-.22-.13c-.11-.06-.47-.14-.21-.1s.08,0,0,0a3,3,0,0,0-3-.06,3.27,3.27,0,0,0-1.7,2,4,4,0,0,0,.26,2.93A3.58,3.58,0,0,0,118.56,93.94Z" style="opacity:0.6000000000000001"></path><path d="M116.81,91.24a1.86,1.86,0,0,0,1-.84,2.05,2.05,0,0,0,.32-1.26v0h0l0-.2a1,1,0,0,0,0-.23,1.55,1.55,0,0,0-.28-.56.8.8,0,0,0-.23-.22.51.51,0,0,0-.39,0l-.07-.07-.11-.06c-.06,0-.25-.08-.12-.06s.05,0,0,0a1.6,1.6,0,0,0-1.57,0,1.67,1.67,0,0,0-.88,1,2.13,2.13,0,0,0,.13,1.53A1.89,1.89,0,0,0,116.81,91.24Z" style="fill:#C9B59C;opacity:0.30000000000000004"></path><path d="M431.76,77.24a3.62,3.62,0,0,0,1.85-1.6,4.06,4.06,0,0,0,.62-2.43v-.09c0-.12,0-.27-.06-.39a1.75,1.75,0,0,0-.1-.44,3,3,0,0,0-.54-1.08,1.87,1.87,0,0,0-.43-.41,1,1,0,0,0-.75-.09.87.87,0,0,0-.14-.12l-.21-.13c-.12-.06-.48-.14-.22-.1s.08,0,0,0a3,3,0,0,0-3-.06,3.27,3.27,0,0,0-1.7,2,4,4,0,0,0,.26,2.93A3.59,3.59,0,0,0,431.76,77.24Z" style="fill:#C9B59C"></path><path d="M431.76,77.24a3.62,3.62,0,0,0,1.85-1.6,4.06,4.06,0,0,0,.62-2.43v-.09c0-.12,0-.27-.06-.39a1.75,1.75,0,0,0-.1-.44,3,3,0,0,0-.54-1.08,1.87,1.87,0,0,0-.43-.41,1,1,0,0,0-.75-.09.87.87,0,0,0-.14-.12l-.21-.13c-.12-.06-.48-.14-.22-.1s.08,0,0,0a3,3,0,0,0-3-.06,3.27,3.27,0,0,0-1.7,2,4,4,0,0,0,.26,2.93A3.59,3.59,0,0,0,431.76,77.24Z" style="opacity:0.6000000000000001"></path><path d="M430,74.54a1.87,1.87,0,0,0,1-.84,2.05,2.05,0,0,0,.32-1.26v0h0l0-.2a1,1,0,0,0,0-.23,1.41,1.41,0,0,0-.28-.56.92.92,0,0,0-.22-.22.5.5,0,0,0-.4,0,.23.23,0,0,0-.07-.07l-.11-.06c-.06,0-.25-.08-.11-.06s0,0,0,0a1.6,1.6,0,0,0-1.57,0,1.67,1.67,0,0,0-.88,1,2.13,2.13,0,0,0,.13,1.53A1.89,1.89,0,0,0,430,74.54Z" style="fill:#C9B59C;opacity:0.30000000000000004"></path><path d="M297.48,84.53a3.62,3.62,0,0,0,1.85-1.6A4,4,0,0,0,300,80.5v-.08l-.06-.4a1.67,1.67,0,0,0-.1-.43,3.25,3.25,0,0,0-.53-1.09,2.14,2.14,0,0,0-.44-.41,1,1,0,0,0-.75-.08.58.58,0,0,0-.14-.13l-.21-.12c-.12-.07-.48-.15-.22-.11s.08,0,0,0a3,3,0,0,0-3-.06,3.27,3.27,0,0,0-1.7,2,4.07,4.07,0,0,0,.26,2.93A3.59,3.59,0,0,0,297.48,84.53Z" style="fill:#C9B59C"></path><path d="M297.48,84.53a3.62,3.62,0,0,0,1.85-1.6A4,4,0,0,0,300,80.5v-.08l-.06-.4a1.67,1.67,0,0,0-.1-.43,3.25,3.25,0,0,0-.53-1.09,2.14,2.14,0,0,0-.44-.41,1,1,0,0,0-.75-.08.58.58,0,0,0-.14-.13l-.21-.12c-.12-.07-.48-.15-.22-.11s.08,0,0,0a3,3,0,0,0-3-.06,3.27,3.27,0,0,0-1.7,2,4.07,4.07,0,0,0,.26,2.93A3.59,3.59,0,0,0,297.48,84.53Z" style="opacity:0.6000000000000001"></path><path d="M295.74,81.83a1.86,1.86,0,0,0,1-.83,2.1,2.1,0,0,0,.32-1.27v0h0l0-.21a1,1,0,0,0-.05-.23,1.48,1.48,0,0,0-.28-.56,1.15,1.15,0,0,0-.22-.22.58.58,0,0,0-.39,0l-.08-.07-.11-.06c-.06,0-.25-.08-.11-.06s0,0,0,0a1.6,1.6,0,0,0-1.57,0,1.72,1.72,0,0,0-.88,1,2.18,2.18,0,0,0,.13,1.53A1.87,1.87,0,0,0,295.74,81.83Z" style="fill:#C9B59C;opacity:0.30000000000000004"></path><path d="M356.05,71.79a3.77,3.77,0,0,0,1.86-1.6,4.07,4.07,0,0,0,.61-2.44v-.08c0-.12,0-.27-.06-.39a1.65,1.65,0,0,0-.1-.44,3.11,3.11,0,0,0-.53-1.08,2.19,2.19,0,0,0-.44-.42,1,1,0,0,0-.75-.08l-.14-.13-.21-.12c-.12-.06-.48-.15-.22-.11s.08,0,0,0a3.05,3.05,0,0,0-3-.06,3.29,3.29,0,0,0-1.7,2,4.07,4.07,0,0,0,.26,2.93A3.61,3.61,0,0,0,356.05,71.79Z" style="fill:#C9B59C"></path><path d="M356.05,71.79a3.77,3.77,0,0,0,1.86-1.6,4.07,4.07,0,0,0,.61-2.44v-.08c0-.12,0-.27-.06-.39a1.65,1.65,0,0,0-.1-.44,3.11,3.11,0,0,0-.53-1.08,2.19,2.19,0,0,0-.44-.42,1,1,0,0,0-.75-.08l-.14-.13-.21-.12c-.12-.06-.48-.15-.22-.11s.08,0,0,0a3.05,3.05,0,0,0-3-.06,3.29,3.29,0,0,0-1.7,2,4.07,4.07,0,0,0,.26,2.93A3.61,3.61,0,0,0,356.05,71.79Z" style="opacity:0.6000000000000001"></path><path d="M354.31,69.08a1.86,1.86,0,0,0,1-.83,2,2,0,0,0,.32-1.27v0h0l0-.21a1.06,1.06,0,0,0-.05-.23,1.48,1.48,0,0,0-.28-.56,1.52,1.52,0,0,0-.22-.22.58.58,0,0,0-.39,0l-.08-.06-.11-.07c-.06,0-.25-.07-.11,0s0,0,0,0a1.58,1.58,0,0,0-1.56,0,1.73,1.73,0,0,0-.89,1A2.13,2.13,0,0,0,352,68,1.86,1.86,0,0,0,354.31,69.08Z" style="fill:#C9B59C;opacity:0.30000000000000004"></path><path d="M193.59,83.57a3.62,3.62,0,0,0,1.85-1.6,4,4,0,0,0,.61-2.44v-.08c0-.12,0-.27-.06-.39a2.29,2.29,0,0,0-.09-.44,3,3,0,0,0-.54-1.08,2.14,2.14,0,0,0-.43-.42,1.06,1.06,0,0,0-.75-.08l-.14-.13-.22-.12c-.12-.06-.47-.15-.21-.1s.08,0,0,0a3,3,0,0,0-3-.07,3.29,3.29,0,0,0-1.7,2,4.06,4.06,0,0,0,.25,2.93A3.62,3.62,0,0,0,193.59,83.57Z" style="fill:#C9B59C"></path><path d="M193.59,83.57a3.62,3.62,0,0,0,1.85-1.6,4,4,0,0,0,.61-2.44v-.08c0-.12,0-.27-.06-.39a2.29,2.29,0,0,0-.09-.44,3,3,0,0,0-.54-1.08,2.14,2.14,0,0,0-.43-.42,1.06,1.06,0,0,0-.75-.08l-.14-.13-.22-.12c-.12-.06-.47-.15-.21-.1s.08,0,0,0a3,3,0,0,0-3-.07,3.29,3.29,0,0,0-1.7,2,4.06,4.06,0,0,0,.25,2.93A3.62,3.62,0,0,0,193.59,83.57Z" style="opacity:0.6000000000000001"></path><path d="M191.84,80.86a1.88,1.88,0,0,0,1-.83,2.08,2.08,0,0,0,.32-1.27v0h0l0-.21a.87.87,0,0,0,0-.22,1.69,1.69,0,0,0-.28-.57.93.93,0,0,0-.23-.21.51.51,0,0,0-.39-.05l-.07-.06-.11-.07c-.06,0-.25-.07-.12,0s.05,0,0,0a1.55,1.55,0,0,0-1.56,0,1.67,1.67,0,0,0-.88,1,2.05,2.05,0,0,0,.13,1.52A1.87,1.87,0,0,0,191.84,80.86Z" style="fill:#C9B59C;opacity:0.30000000000000004"></path><path d="M391.44,123.49a3.36,3.36,0,0,1-.47,2.64c-.83,1.43-2.29,3-4,2.94-1.51,0-3.21-1.54-2.63-3.25a2.86,2.86,0,0,1,1.31-1.49,3.93,3.93,0,0,1,.56-.24l.12-.32a3.92,3.92,0,0,1,.84-1.13,2.82,2.82,0,0,1,2.5-.73A2.33,2.33,0,0,1,391.44,123.49Z" style="fill:#C9B59C"></path><path d="M391.44,123.49a3.36,3.36,0,0,1-.47,2.64c-.83,1.43-2.29,3-4,2.94-1.51,0-3.21-1.54-2.63-3.25a2.86,2.86,0,0,1,1.31-1.49,3.93,3.93,0,0,1,.56-.24l.12-.32a3.92,3.92,0,0,1,.84-1.13,2.82,2.82,0,0,1,2.5-.73A2.33,2.33,0,0,1,391.44,123.49Z" style="opacity:0.6000000000000001"></path><path d="M388,124.43a1.78,1.78,0,0,1,.09-1.43,1.56,1.56,0,0,1,2.23-.48,1.49,1.49,0,0,1,.65,1.15,1.77,1.77,0,0,1-.43,1.27,1.39,1.39,0,0,1-1.21.51,1.1,1.1,0,0,1-.35-.11.66.66,0,0,1-.29-.06l-.12-.07a.27.27,0,0,1-.08-.07l0,0-.06,0A1.56,1.56,0,0,1,388,124.43Z" style="fill:#C9B59C;opacity:0.30000000000000004"></path><path d="M177,44.75a3.32,3.32,0,0,0,.46,2.64c.83,1.43,2.29,3,4,3,1.5,0,3.21-1.54,2.63-3.26a2.87,2.87,0,0,0-1.31-1.48,4.11,4.11,0,0,0-.57-.25c0-.11-.08-.22-.12-.31a3.92,3.92,0,0,0-.84-1.13,2.8,2.8,0,0,0-2.49-.74A2.32,2.32,0,0,0,177,44.75Z" style="fill:#C9B59C"></path><path d="M177,44.75a3.32,3.32,0,0,0,.46,2.64c.83,1.43,2.29,3,4,3,1.5,0,3.21-1.54,2.63-3.26a2.87,2.87,0,0,0-1.31-1.48,4.11,4.11,0,0,0-.57-.25c0-.11-.08-.22-.12-.31a3.92,3.92,0,0,0-.84-1.13,2.8,2.8,0,0,0-2.49-.74A2.32,2.32,0,0,0,177,44.75Z" style="opacity:0.6000000000000001"></path><path d="M180.42,45.7a1.82,1.82,0,0,0-.09-1.43,1.57,1.57,0,0,0-2.23-.49,1.51,1.51,0,0,0-.66,1.16,1.82,1.82,0,0,0,.44,1.26,1.35,1.35,0,0,0,1.2.52,1.3,1.3,0,0,0,.35-.11.62.62,0,0,0,.29-.07l.13-.07.08-.06,0,0a.12.12,0,0,0,.05-.05A1.55,1.55,0,0,0,180.42,45.7Z" style="fill:#C9B59C;opacity:0.30000000000000004"></path><path d="M103.09,81.79a1.3,1.3,0,0,0,0,.18,1.11,1.11,0,0,0,0,.21c0,.1.08.23.12.33a.09.09,0,0,0,0,.06c0,.07.15.2.2.28a2.57,2.57,0,0,0,.24.21h0a1.94,1.94,0,0,0,.79.26h.12a3,3,0,0,0,.42,0,.19.19,0,0,0,.12,0l.37-.15a.91.91,0,0,1,.13-.08,3.65,3.65,0,0,0,.32-.26.29.29,0,0,1,.1-.08,1.87,1.87,0,0,0,.2-.29c.07-.1.09-.23.14-.31s0-.1,0-.13v0a1.08,1.08,0,0,0,0-.47.3.3,0,0,0,0-.16v-.08a2.34,2.34,0,0,0-.19-.44.58.58,0,0,0-.23-.28.34.34,0,0,0-.22-.13.53.53,0,0,0-.34-.11c-.1,0-.18,0-.28,0l-.17.08a1.09,1.09,0,0,0-.49-.16,1.5,1.5,0,0,0-.67.16l-.05,0a1.65,1.65,0,0,0-.27.21s0,0,0,0a1.16,1.16,0,0,0-.25.29s0,0,0,0-.09.23-.14.34v0s0,0,0,.06A2.6,2.6,0,0,0,103.09,81.79Z" style="fill:#C9B59C"></path><path d="M103.09,81.79a1.3,1.3,0,0,0,0,.18,1.11,1.11,0,0,0,0,.21c0,.1.08.23.12.33a.09.09,0,0,0,0,.06c0,.07.15.2.2.28a2.57,2.57,0,0,0,.24.21h0a1.94,1.94,0,0,0,.79.26h.12a3,3,0,0,0,.42,0,.19.19,0,0,0,.12,0l.37-.15a.91.91,0,0,1,.13-.08,3.65,3.65,0,0,0,.32-.26.29.29,0,0,1,.1-.08,1.87,1.87,0,0,0,.2-.29c.07-.1.09-.23.14-.31s0-.1,0-.13v0a1.08,1.08,0,0,0,0-.47.3.3,0,0,0,0-.16v-.08a2.34,2.34,0,0,0-.19-.44.58.58,0,0,0-.23-.28.34.34,0,0,0-.22-.13.53.53,0,0,0-.34-.11c-.1,0-.18,0-.28,0l-.17.08a1.09,1.09,0,0,0-.49-.16,1.5,1.5,0,0,0-.67.16l-.05,0a1.65,1.65,0,0,0-.27.21s0,0,0,0a1.16,1.16,0,0,0-.25.29s0,0,0,0-.09.23-.14.34v0s0,0,0,.06A2.6,2.6,0,0,0,103.09,81.79Z" style="opacity:0.6000000000000001"></path><path d="M105.22,81.67a.92.92,0,0,0,0-.71.77.77,0,0,0-1.1-.24.73.73,0,0,0-.33.57.89.89,0,0,0,.21.63.68.68,0,0,0,.6.25.61.61,0,0,0,.18,0l.14,0,.06,0,0,0h0l0,0A.83.83,0,0,0,105.22,81.67Z" style="fill:#C9B59C;opacity:0.30000000000000004"></path><path d="M452.38,61.53s0,.18,0,.18a.75.75,0,0,0,0,.21,1.74,1.74,0,0,0,.12.34s0,0,0,.05l.19.28a1.73,1.73,0,0,0,.25.21h0a2,2,0,0,0,.79.26H454a2,2,0,0,0,.42-.05.23.23,0,0,0,.12,0l.37-.15.12-.08a3.75,3.75,0,0,0,.33-.26.36.36,0,0,1,.09-.08,1.62,1.62,0,0,0,.2-.28,2.87,2.87,0,0,0,.15-.32c0-.05,0-.1.05-.13v0a.94.94,0,0,0,0-.47.47.47,0,0,0,0-.16V61a1.78,1.78,0,0,0-.2-.45.62.62,0,0,0-.22-.28.34.34,0,0,0-.22-.13.54.54,0,0,0-.35-.11c-.1,0-.17,0-.27,0l-.17.08a1.09,1.09,0,0,0-.5-.16,1.46,1.46,0,0,0-.66.16l-.05,0a1.31,1.31,0,0,0-.27.21s0,0,0,0a1.32,1.32,0,0,0-.24.29s0,0,0,0-.1.24-.15.34v0s0,0,0,0A1.74,1.74,0,0,0,452.38,61.53Z" style="fill:#C9B59C"></path><path d="M452.38,61.53s0,.18,0,.18a.75.75,0,0,0,0,.21,1.74,1.74,0,0,0,.12.34s0,0,0,.05l.19.28a1.73,1.73,0,0,0,.25.21h0a2,2,0,0,0,.79.26H454a2,2,0,0,0,.42-.05.23.23,0,0,0,.12,0l.37-.15.12-.08a3.75,3.75,0,0,0,.33-.26.36.36,0,0,1,.09-.08,1.62,1.62,0,0,0,.2-.28,2.87,2.87,0,0,0,.15-.32c0-.05,0-.1.05-.13v0a.94.94,0,0,0,0-.47.47.47,0,0,0,0-.16V61a1.78,1.78,0,0,0-.2-.45.62.62,0,0,0-.22-.28.34.34,0,0,0-.22-.13.54.54,0,0,0-.35-.11c-.1,0-.17,0-.27,0l-.17.08a1.09,1.09,0,0,0-.5-.16,1.46,1.46,0,0,0-.66.16l-.05,0a1.31,1.31,0,0,0-.27.21s0,0,0,0a1.32,1.32,0,0,0-.24.29s0,0,0,0-.1.24-.15.34v0s0,0,0,0A1.74,1.74,0,0,0,452.38,61.53Z" style="opacity:0.6000000000000001"></path><path d="M454.5,61.41a.92.92,0,0,0,0-.71.79.79,0,0,0-1.11-.24A.72.72,0,0,0,453,61a.89.89,0,0,0,.21.63.7.7,0,0,0,.6.26.49.49,0,0,0,.17-.06.4.4,0,0,0,.15,0l.06,0,0,0h0l0,0A.71.71,0,0,0,454.5,61.41Z" style="fill:#C9B59C;opacity:0.30000000000000004"></path><path d="M369.75,56.83a1.3,1.3,0,0,0,0,.18,1.11,1.11,0,0,0,0,.21,2.92,2.92,0,0,0,.13.34.1.1,0,0,0,0,0l.2.28a1.64,1.64,0,0,0,.24.21h0a1.94,1.94,0,0,0,.79.26h.12a2,2,0,0,0,.42,0,.24.24,0,0,0,.13,0l.37-.15.12-.08a3.65,3.65,0,0,0,.32-.26.29.29,0,0,1,.1-.08,2.43,2.43,0,0,0,.2-.28c.07-.11.09-.24.14-.32s0-.1.05-.13v0a1.07,1.07,0,0,0,0-.47.32.32,0,0,0,0-.16v-.07a2.16,2.16,0,0,0-.19-.45.63.63,0,0,0-.23-.28.34.34,0,0,0-.22-.13.53.53,0,0,0-.34-.11c-.1,0-.18,0-.28,0a.68.68,0,0,1-.17.08,1.09,1.09,0,0,0-.49-.16,1.5,1.5,0,0,0-.67.16l0,.05a2.22,2.22,0,0,0-.27.21s0,0,0,0A1.37,1.37,0,0,0,370,56s0,0,0,.05a3.45,3.45,0,0,1-.14.34v0s0,0,0,0A2.6,2.6,0,0,0,369.75,56.83Z" style="fill:#C9B59C"></path><path d="M369.75,56.83a1.3,1.3,0,0,0,0,.18,1.11,1.11,0,0,0,0,.21,2.92,2.92,0,0,0,.13.34.1.1,0,0,0,0,0l.2.28a1.64,1.64,0,0,0,.24.21h0a1.94,1.94,0,0,0,.79.26h.12a2,2,0,0,0,.42,0,.24.24,0,0,0,.13,0l.37-.15.12-.08a3.65,3.65,0,0,0,.32-.26.29.29,0,0,1,.1-.08,2.43,2.43,0,0,0,.2-.28c.07-.11.09-.24.14-.32s0-.1.05-.13v0a1.07,1.07,0,0,0,0-.47.32.32,0,0,0,0-.16v-.07a2.16,2.16,0,0,0-.19-.45.63.63,0,0,0-.23-.28.34.34,0,0,0-.22-.13.53.53,0,0,0-.34-.11c-.1,0-.18,0-.28,0a.68.68,0,0,1-.17.08,1.09,1.09,0,0,0-.49-.16,1.5,1.5,0,0,0-.67.16l0,.05a2.22,2.22,0,0,0-.27.21s0,0,0,0A1.37,1.37,0,0,0,370,56s0,0,0,.05a3.45,3.45,0,0,1-.14.34v0s0,0,0,0A2.6,2.6,0,0,0,369.75,56.83Z" style="opacity:0.6000000000000001"></path><path d="M371.88,56.71a.88.88,0,0,0-.05-.71.78.78,0,0,0-1.1-.24.75.75,0,0,0-.33.57.9.9,0,0,0,.22.63.66.66,0,0,0,.59.26.55.55,0,0,0,.18-.06l.14,0,.06,0s0,0,0,0h0l0,0A1,1,0,0,0,371.88,56.71Z" style="fill:#C9B59C;opacity:0.30000000000000004"></path><path d="M298.23,72.39a1.83,1.83,0,0,0,0,.19.75.75,0,0,0,0,.21,1.46,1.46,0,0,0,.12.33.09.09,0,0,0,0,.06,2.75,2.75,0,0,1,.19.28l.25.21h0a2,2,0,0,0,.79.26h.12a3,3,0,0,0,.42-.05.23.23,0,0,0,.12,0l.37-.16.13-.07c.09-.08.22-.16.32-.26a.29.29,0,0,1,.1-.08,1.81,1.81,0,0,0,.19-.29,2.15,2.15,0,0,0,.15-.31c0-.05,0-.1.05-.13v0a1,1,0,0,0,0-.46.29.29,0,0,0,0-.16v-.08a1.89,1.89,0,0,0-.2-.44.64.64,0,0,0-.22-.29A.45.45,0,0,0,301,71a.6.6,0,0,0-.35-.1c-.1,0-.17,0-.27,0l-.17.07a1.22,1.22,0,0,0-.49-.15,1.59,1.59,0,0,0-.67.15L299,71a2.34,2.34,0,0,0-.27.2s0,0,0,0a1.13,1.13,0,0,0-.24.29s0,0,0,0-.1.23-.15.34v0s0,0,0,0A1.74,1.74,0,0,0,298.23,72.39Z" style="fill:#C9B59C"></path><path d="M298.23,72.39a1.83,1.83,0,0,0,0,.19.75.75,0,0,0,0,.21,1.46,1.46,0,0,0,.12.33.09.09,0,0,0,0,.06,2.75,2.75,0,0,1,.19.28l.25.21h0a2,2,0,0,0,.79.26h.12a3,3,0,0,0,.42-.05.23.23,0,0,0,.12,0l.37-.16.13-.07c.09-.08.22-.16.32-.26a.29.29,0,0,1,.1-.08,1.81,1.81,0,0,0,.19-.29,2.15,2.15,0,0,0,.15-.31c0-.05,0-.1.05-.13v0a1,1,0,0,0,0-.46.29.29,0,0,0,0-.16v-.08a1.89,1.89,0,0,0-.2-.44.64.64,0,0,0-.22-.29A.45.45,0,0,0,301,71a.6.6,0,0,0-.35-.1c-.1,0-.17,0-.27,0l-.17.07a1.22,1.22,0,0,0-.49-.15,1.59,1.59,0,0,0-.67.15L299,71a2.34,2.34,0,0,0-.27.2s0,0,0,0a1.13,1.13,0,0,0-.24.29s0,0,0,0-.1.23-.15.34v0s0,0,0,0A1.74,1.74,0,0,0,298.23,72.39Z" style="opacity:0.6000000000000001"></path><path d="M300.35,72.28a.92.92,0,0,0,0-.71.78.78,0,0,0-1.11-.24.72.72,0,0,0-.32.57.89.89,0,0,0,.21.63.71.71,0,0,0,.6.25l.17,0a.28.28,0,0,0,.15,0l.06,0,0,0,0,0,0,0A.77.77,0,0,0,300.35,72.28Z" style="fill:#C9B59C;opacity:0.30000000000000004"></path><path d="M187.59,50.36a1.25,1.25,0,0,0,0,.19,1,1,0,0,0,0,.2,2,2,0,0,0,.13.34.08.08,0,0,0,0,0l.2.29a1.84,1.84,0,0,0,.25.21h0a2.1,2.1,0,0,0,.79.26h.12a2.84,2.84,0,0,0,.42,0,.24.24,0,0,0,.13,0l.37-.16.12-.07a3.65,3.65,0,0,0,.32-.26.27.27,0,0,1,.1-.08,2.51,2.51,0,0,0,.2-.29c.07-.1.1-.23.15-.31s0-.1.05-.13v0a1.19,1.19,0,0,0,0-.46.41.41,0,0,0,0-.16v-.08a1.89,1.89,0,0,0-.2-.44.72.72,0,0,0-.22-.29.53.53,0,0,0-.23-.13.59.59,0,0,0-.34-.1c-.1,0-.17,0-.27,0a1.13,1.13,0,0,1-.18.07,1.17,1.17,0,0,0-.49-.15,1.66,1.66,0,0,0-.67.15l-.05.06c-.07,0-.19.13-.27.2s0,0,0,0a1.16,1.16,0,0,0-.25.29s0,0,0,.05-.1.23-.15.34v0s0,0,0,0A2.6,2.6,0,0,0,187.59,50.36Z" style="fill:#C9B59C"></path><path d="M187.59,50.36a1.25,1.25,0,0,0,0,.19,1,1,0,0,0,0,.2,2,2,0,0,0,.13.34.08.08,0,0,0,0,0l.2.29a1.84,1.84,0,0,0,.25.21h0a2.1,2.1,0,0,0,.79.26h.12a2.84,2.84,0,0,0,.42,0,.24.24,0,0,0,.13,0l.37-.16.12-.07a3.65,3.65,0,0,0,.32-.26.27.27,0,0,1,.1-.08,2.51,2.51,0,0,0,.2-.29c.07-.1.1-.23.15-.31s0-.1.05-.13v0a1.19,1.19,0,0,0,0-.46.41.41,0,0,0,0-.16v-.08a1.89,1.89,0,0,0-.2-.44.72.72,0,0,0-.22-.29.53.53,0,0,0-.23-.13.59.59,0,0,0-.34-.1c-.1,0-.17,0-.27,0a1.13,1.13,0,0,1-.18.07,1.17,1.17,0,0,0-.49-.15,1.66,1.66,0,0,0-.67.15l-.05.06c-.07,0-.19.13-.27.2s0,0,0,0a1.16,1.16,0,0,0-.25.29s0,0,0,.05-.1.23-.15.34v0s0,0,0,0A2.6,2.6,0,0,0,187.59,50.36Z" style="opacity:0.6000000000000001"></path><path d="M189.72,50.25a.88.88,0,0,0-.05-.71.77.77,0,0,0-1.1-.24.75.75,0,0,0-.33.57.92.92,0,0,0,.22.63.69.69,0,0,0,.6.25l.17,0a.25.25,0,0,0,.14,0l.06,0,0,0,0,0,0,0A.79.79,0,0,0,189.72,50.25Z" style="fill:#C9B59C;opacity:0.30000000000000004"></path><path d="M394.22,113.55a2.05,2.05,0,0,1-.31,2.21,3.84,3.84,0,0,1-1.67,1,2.29,2.29,0,0,1-1.24.11,1.61,1.61,0,0,1-.9-.51,1.35,1.35,0,0,1-.29-1.26,1.47,1.47,0,0,1,.32-.56s0-.06.07-.08h0s0,0,0,0l.1-.15.13-.11.22-.21.15-.11h0s0,0,0,0l.3-.28.18-.15.05,0s0,0,0,0a.23.23,0,0,1,.06-.07l.08-.06a2.17,2.17,0,0,1,.79-.39A1.57,1.57,0,0,1,394.22,113.55Z" style="fill:#C9B59C"></path><path d="M394.22,113.55a2.05,2.05,0,0,1-.31,2.21,3.84,3.84,0,0,1-1.67,1,2.29,2.29,0,0,1-1.24.11,1.61,1.61,0,0,1-.9-.51,1.35,1.35,0,0,1-.29-1.26,1.47,1.47,0,0,1,.32-.56s0-.06.07-.08h0s0,0,0,0l.1-.15.13-.11.22-.21.15-.11h0s0,0,0,0l.3-.28.18-.15.05,0s0,0,0,0a.23.23,0,0,1,.06-.07l.08-.06a2.17,2.17,0,0,1,.79-.39A1.57,1.57,0,0,1,394.22,113.55Z" style="opacity:0.6000000000000001"></path><path d="M392,114.59a1.24,1.24,0,0,1,.06-1,1.08,1.08,0,0,1,1.53-.34,1,1,0,0,1,.46.8,1.27,1.27,0,0,1-.3.87,1,1,0,0,1-.83.35.62.62,0,0,1-.24-.08.36.36,0,0,1-.2,0l-.09,0-.05,0,0,0,0,0A1.25,1.25,0,0,1,392,114.59Z" style="fill:#C9B59C;opacity:0.30000000000000004"></path><path d="M178.54,138.88c10.09,3.5,20.89,2.07,30.47,3.65s24.21,3,57-2.08c0,0-35.72,15.58-52.51,16.2S178.54,138.88,178.54,138.88Z" style="fill:#C9B59C"></path><path d="M178.54,138.88c10.09,3.5,20.89,2.07,30.47,3.65s24.21,3,57-2.08c0,0-35.72,15.58-52.51,16.2S178.54,138.88,178.54,138.88Z" style="opacity:0.8"></path><path d="M419.79,90.29c-4.14,3.48-10.77,6.57-13.36,7.82s-23.57,15.55-26.91,20.08S373,139,357.62,144H285.17a2.71,2.71,0,0,0-.9,0c-1.6.18-1.48,1.22-10.5,6.15-12.75,7-21.53,4-26.31,5.78s-2.69,6.28-.1,7.48,6.48-1,7.47,2.39-2.09,8.17-8.07,7-9-11.36-14.36-12.45-13.75,5-22.62,5.28-24.82-3.49-32.09-9.37c-4.72-3.81-7.31-8.36-10.53-12.23h-26a12.64,12.64,0,0,1-5.59-4.22c-1.89-2.89,1.28-8-5.79-8s-9.17,5.42-12,6.1-7,.48-8.07,2.37-6.19,6.68-9.77,3.1.79-6.68,4.08-6.49,6.29-1.2,5.48-4-15.15,3.49-21.83,4.68S70.25,137,66.46,135a91.53,91.53,0,0,0-14-5.58c-3.29-.9-9.77-2.59-7.28-8.08s8,1,10.28,3.49,10.65,5.89,13.75,6.58,12.14,1.3,24.61-.39,32.68-8.48,53.22-8.48a36.47,36.47,0,0,1,27.1,11.47c2,2,3.29,3.65,4,4,2.29,1.09,4,1,7.58,3.49A29.9,29.9,0,0,0,190.1,144a50.22,50.22,0,0,0,7.12,2.66c3.1.9,3.59,5.08,9,6.28s13-4.18,19.64-4.59A144.29,144.29,0,0,0,249.21,144a23.47,23.47,0,0,0,6.5-2.52c1-.81,2.38-1.78,3.94-2.82a58.16,58.16,0,0,1,14-6.95c7.78-2.49,15.84-11.46,20.33-15s9.67-7,9.07-9.86-4-8.87,1.1-9.87,6.28,5.18,5.08,9.27c-.92,3.2-.83,6.21-2.39,8.82a21.56,21.56,0,0,1,4.41-3.28,52.12,52.12,0,0,1,24.39-6.25c12.06-.29,40.67-1.94,44.71-3.33s7.12-5,9.91-5.73,14.41.44,18.49-4.29,3-10.87,8.43-12.05S423.92,86.8,419.79,90.29Z" style="fill:#C9B59C"></path><path d="M419.79,90.29c-4.14,3.48-10.77,6.57-13.36,7.82s-23.57,15.55-26.91,20.08S373,139,357.62,144H285.17a2.71,2.71,0,0,0-.9,0c-1.6.18-1.48,1.22-10.5,6.15-12.75,7-21.53,4-26.31,5.78s-2.69,6.28-.1,7.48,6.48-1,7.47,2.39-2.09,8.17-8.07,7-9-11.36-14.36-12.45-13.75,5-22.62,5.28-24.82-3.49-32.09-9.37c-4.72-3.81-7.31-8.36-10.53-12.23h-26a12.64,12.64,0,0,1-5.59-4.22c-1.89-2.89,1.28-8-5.79-8s-9.17,5.42-12,6.1-7,.48-8.07,2.37-6.19,6.68-9.77,3.1.79-6.68,4.08-6.49,6.29-1.2,5.48-4-15.15,3.49-21.83,4.68S70.25,137,66.46,135a91.53,91.53,0,0,0-14-5.58c-3.29-.9-9.77-2.59-7.28-8.08s8,1,10.28,3.49,10.65,5.89,13.75,6.58,12.14,1.3,24.61-.39,32.68-8.48,53.22-8.48a36.47,36.47,0,0,1,27.1,11.47c2,2,3.29,3.65,4,4,2.29,1.09,4,1,7.58,3.49A29.9,29.9,0,0,0,190.1,144a50.22,50.22,0,0,0,7.12,2.66c3.1.9,3.59,5.08,9,6.28s13-4.18,19.64-4.59A144.29,144.29,0,0,0,249.21,144a23.47,23.47,0,0,0,6.5-2.52c1-.81,2.38-1.78,3.94-2.82a58.16,58.16,0,0,1,14-6.95c7.78-2.49,15.84-11.46,20.33-15s9.67-7,9.07-9.86-4-8.87,1.1-9.87,6.28,5.18,5.08,9.27c-.92,3.2-.83,6.21-2.39,8.82a21.56,21.56,0,0,1,4.41-3.28,52.12,52.12,0,0,1,24.39-6.25c12.06-.29,40.67-1.94,44.71-3.33s7.12-5,9.91-5.73,14.41.44,18.49-4.29,3-10.87,8.43-12.05S423.92,86.8,419.79,90.29Z" style="opacity:0.7000000000000001"></path><g style="opacity:0.2"><path d="M167.08,144.11c-3.9-3.23-7.83-6.25-11.93-9a32.27,32.27,0,0,0-6.42-3.77,24.26,24.26,0,0,0-7.29-1.58,96.39,96.39,0,0,0-14.91,0,109.24,109.24,0,0,0-14.86,1.83l-.06-.19a34.47,34.47,0,0,1,7.21-2.53c10-2.52,20.51-1.46,30.14,1.91a32.89,32.89,0,0,1,13.23,7.54,32.35,32.35,0,0,1,5,5.73l-.15.14Z"></path><path d="M284.21,144c5.84-5.38,11.5-12.33,17.24-17.82a44.55,44.55,0,0,1,6.38-5.48,41.79,41.79,0,0,1,7.64-3.53c5.23-1.85,10.52-3.39,15.85-4.89a66.23,66.23,0,0,1,8.12-1.88c9.54-1.47,23.28-1.94,33-2.58a19,19,0,0,0,7.64-1.7c3.8-1.56,6.91-4.58,10.87-6,4.06-1.14,8.26-1,12.36-1.81l0,.2c-3.92,1.25-8.13,1.49-12,2.85-3.66,1.73-6.62,4.82-10.45,6.55a20.14,20.14,0,0,1-8.33,2.08c-11,.69-22.06.74-33,1.54a76.41,76.41,0,0,0-16,3.72c-5.1,1.78-10.35,3.83-14.8,6.87a67.07,67.07,0,0,0-6.07,5.37c-3.43,3.36-8.44,8.23-11.92,11.46a52.16,52.16,0,0,1-6.44,5.25l-.12-.16Z"></path><path d="M178.8,138.64c3.15,1.56,6.89,5.18,9.68,7.38a39.79,39.79,0,0,0,10.41,5.57c3.72,1.55,7.73,2.21,11.62,3.25a17.37,17.37,0,0,0,11.73-.22c3.72-1.32,7-3.74,10.7-5.55a49.94,49.94,0,0,1,11.58-4.29,127.69,127.69,0,0,0,23.09-7.07l.1.17a76,76,0,0,1-22.69,9,59.29,59.29,0,0,0-11.26,3.89c-3.68,1.69-7.21,3.9-11.21,4.91a24.34,24.34,0,0,1-6.13.82c-3.13-.07-6-1.15-9-1.57l-3-.41a34.49,34.49,0,0,1-11.74-3.75c-3.7-1.85-6.68-4.89-9.52-7.81a39.64,39.64,0,0,0-4.4-4.12l.09-.18Z"></path></g><g style="opacity:0.30000000000000004"><path d="M118.44,127.71c7.63-2.54,15.76-3.16,23.73-3.74a47.67,47.67,0,0,1,16,1.62c8,2,14.61,8.13,18,15.52l-.17.11c-1.85-1.95-3.65-3.87-5.55-5.67-5.64-5-12.27-10.84-20.3-10.48-7.84.84-15.9,1.08-23.79,1.84-2.64.25-5.27.52-7.89,1l-.06-.2Z" style="fill:#C9B59C"></path><path d="M269,135.37a41,41,0,0,0,12.07-6.52,83,83,0,0,0,11-8.8c3.6-3.56,8.51-6.19,10.94-10.64a8.43,8.43,0,0,0,.56-1.32c0-2.76-1.91-5.71-.91-8.56A2.22,2.22,0,0,1,304,98.24l.09.18a2,2,0,0,0-.85,1.3c-.22,3,2.19,5.46,2.2,8.56a7.18,7.18,0,0,1-.61,2c-1.22,2.92-3.88,5-6.24,6.72-3.78,2.83-7.95,5-11.43,8.21s-6.53,7.07-11.13,8.84a22.21,22.21,0,0,1-7,1.53l-.05-.2Z" style="fill:#C9B59C"></path><path d="M45.83,123.52c-.46-2.83,1.34-4.58,4-3.24,1.83.8,2.94,2.54,4.09,4,2.4,2.72,6.2,3.48,9.39,4.9,2.2.92,4.43,1.83,6.65,3l0,.19a20.35,20.35,0,0,1-10.75-2.79c-3.33-1.7-5.28-5.3-8.67-6.85l-1.45-.85c-1.9-1.19-2.24.2-3,1.68l-.2,0Z" style="fill:#C9B59C"></path><path d="M100.11,139.1c.29,1.68,1.74,3.14,3.18,2.32a14.37,14.37,0,0,1,4.89-3.48,43.59,43.59,0,0,1,7.76-2.08,4.1,4.1,0,0,0,1.38-.88,23.07,23.07,0,0,1,5-3.48,6.8,6.8,0,0,1,4.17-.75v.2a10.09,10.09,0,0,0-3.35,1.9c-2.23,1.6-4,4-6.72,4.83a17.48,17.48,0,0,1-4.19.07,7.88,7.88,0,0,0-3.81.77,8.25,8.25,0,0,0-2.63,2.78c-.61.86-1.63,2-2.94,2a3.21,3.21,0,0,1-3-4.27l.2,0Z" style="fill:#C9B59C"></path><path d="M233.71,159.08a5.73,5.73,0,0,1,3.12,1.53c1.87,1.38,2.79,3.45,4,5.28a11.64,11.64,0,0,0,3.79,3,7.35,7.35,0,0,0,2.66,1.09,6.87,6.87,0,0,0,4-.54,4.92,4.92,0,0,0,2-2.21h.2c.58,4.31-5.23,6.25-8.34,4-2.1-1.19-3.09-3.35-4.74-4.94a25.86,25.86,0,0,1-4.67-4.62,18.39,18.39,0,0,0-2.09-2.43l.07-.19Z" style="fill:#C9B59C"></path></g></g></g><g id="freepik--Leaves--inject-171"><path d="M173.15,451.68c-.48.49-.94,1-1.41,1.49a.44.44,0,0,1-.26.15c-.41.1-.87-.38-.5-.77s-9.12-23.76-5.38-36.1c.1-.3.18-.62.29-.91s.23-.74.37-1.12a69.05,69.05,0,0,1,4.43-9.94,1.42,1.42,0,0,1,.21-.36c.69-1.35,1.44-2.66,2.22-4,.16-.31.35-.61.54-.92,2.68-4.48,5.63-8.88,8.44-13.25.18-.26.36-.56.54-.85,2-3.15,4-6.32,5.72-9.51a.88.88,0,0,1,1.66.24c1.14,5.43,2.54,11,3.64,16.68.05.32.11.61.17.91.53,2.78,1,5.58,1.22,8.35.06.54.11,1.07.13,1.58a43.52,43.52,0,0,1,.19,5.46c0,.39,0,.77,0,1.15a44.52,44.52,0,0,1-1,7.92c-.21.94-.44,1.88-.71,2.8-.17.63-.38,1.25-.57,1.87C189.31,434,181.28,442.93,173.15,451.68Z" style="fill:#37474f"></path><path d="M171.18,456.67c.08-1.13.18-2.25.3-3.35.44-4.67,1.05-9.36,1.75-14-2.66-8.09-6-15.43-7.34-23.76.11-.38.23-.74.37-1.12a100.63,100.63,0,0,0,3.78,13.4c1.06,2.94,2.61,5.94,3.57,9,1-6,2.14-12,3.49-18a57.28,57.28,0,0,1-2-6.56c-1.51-2.57-2.93-5.23-4.4-7.82a1.42,1.42,0,0,1,.21-.36,54.56,54.56,0,0,1,3.92,6.95,90.09,90.09,0,0,1-1.7-10.92c.16-.31.35-.61.54-.92,1.15,5.95,2.66,11.81,3.85,17.75q1.81-7.78,4-15.46A63.24,63.24,0,0,1,182.1,386c.18-.26.36-.56.54-.85-.27,4.74-.26,9.46-.55,14.19,1.79-6.23,3.75-12.4,5.83-18.47.05-.18.36-.09.31.08-3.06,11.12-5.65,22.27-8,33.46a108.66,108.66,0,0,1,13.43-21.85c.05.32.11.61.17.91a124.73,124.73,0,0,0-14.49,25.13c-.58,2.83-1.09,5.69-1.65,8.54a179.79,179.79,0,0,1,17.36-25.32c.06.54.11,1.07.13,1.58-3.83,4.83-7.51,9.81-11,14.88a95.53,95.53,0,0,1,11.21-9.42c0,.39,0,.77,0,1.15-4,2.95-8,5.84-11.76,9-2.13,3.12-4.22,6.27-6.19,9.49-.79,4.06-1.54,8.14-2.3,12.22q9.21-10.05,18.57-20c-.17.63-.38,1.25-.57,1.87A183.88,183.88,0,0,1,175,441.46q-.93,5.1-1.84,10.22c-.33,1.7-.62,3.43-.93,5.14A.53.53,0,0,1,171.18,456.67Z" style="fill:#263238"></path><path d="M232.76,436.73a85.12,85.12,0,0,1-19.23,12.34q-2.68,1.28-5.52,2.43l-2.81,1.11c-10,3.71-20.93,5.93-31.15,3.61A10.58,10.58,0,0,1,173,456c-.82-.22-.59-1.23,0-1.47l.16-.31c5.79-11.34,15.46-21.24,27.18-26.43.56-.26,1.14-.51,1.71-.72l0,0c.07,0,.15-.05.23-.09a76.54,76.54,0,0,1,10.82-3.29,3.34,3.34,0,0,1,.74-.16c1.06-.27,2.16-.49,3.26-.71.6-.13,1.18-.24,1.78-.33,9.18-1.71,18.7-2.52,27.59-3.92a.9.9,0,0,1,.9,1.37,72.07,72.07,0,0,1-8.92,11.38c-.36.39-.75.79-1.14,1.15-1.13,1.16-2.32,2.29-3.54,3.35C233.47,436.11,233.12,436.42,232.76,436.73Z" style="fill:#37474f"></path><path d="M208,451.5l-2.81,1.11c-7.32-.76-14.65-1.9-22-1.7-3.07,1.78-6.13,3.56-9.19,5.31-2.66,1.52-5.32,3-8,4.46-.76.42-1.58-.79-.85-1.28,2.63-1.77,5.29-3.51,8-5.19,5.13-3.2,10.4-6.25,15.73-9.14a98.34,98.34,0,0,1,11.45-17.29c.56-.26,1.14-.51,1.71-.72a187.2,187.2,0,0,0-11.64,17.2c3.76-2,7.55-4,11.38-5.83,1.14-.54,2.28-1.05,3.42-1.55,2.55-4.47,5.36-8.76,7.91-13.22a3.34,3.34,0,0,1,.74-.16c-1.17,2.42-2.36,4.85-3.61,7.24a94.82,94.82,0,0,1,6.87-7.95c.6-.13,1.18-.24,1.78-.33-3.7,4.41-7.39,8.79-11,13.25q2.5-1.06,5-2a.31.31,0,0,1,.24-.18h.18c9.35-3.7,18.87-7,27.86-11.51.18-.08.31.2.12.31-5.68,3.12-11.59,5.76-17.52,8.33a65.31,65.31,0,0,1,14.75.66c-.36.39-.75.79-1.14,1.15a83.71,83.71,0,0,0-14.79-1.29l-5.6,2.41a75.9,75.9,0,0,1,16.85,2.23c-.34.32-.69.63-1.05.94-5.84-.93-11.7-1.55-17.56-2.41-3.93,1.71-7.84,3.46-11.67,5.38-6.48,3.21-12.72,6.79-18.95,10.42a95,95,0,0,1,11.94.43C200.29,450.81,204.18,451,208,451.5Z" style="fill:#263238"></path><path d="M405.11,468.2a85.09,85.09,0,0,1-22.66-2.95c-1.93-.5-3.85-1.07-5.79-1.7-1-.31-1.91-.64-2.87-1-10-3.59-19.82-8.95-26.15-17.31a8.7,8.7,0,0,1-.67-.86c-.48-.69.34-1.32,1-1.1l.32-.13c11.74-4.95,25.51-6.29,37.82-2.71.59.16,1.19.34,1.77.55h0l.24.08a76.71,76.71,0,0,1,10.4,4.45,3.58,3.58,0,0,1,.66.36c1,.47,2,1,3,1.55.54.29,1.05.58,1.57.9,8.12,4.61,15.92,10.12,23.63,14.78a.89.89,0,0,1-.2,1.62,72,72,0,0,1-14.15,3c-.53.07-1.08.12-1.61.15-1.62.15-3.25.26-4.87.28C406,468.19,405.57,468.19,405.11,468.2Z" style="fill:#37474f"></path><path d="M376.66,463.55c-1-.31-1.91-.64-2.87-1-5.11-5.3-10-10.89-15.7-15.45-3.5-.61-7-1.22-10.45-1.86-3-.55-6-1.1-9-1.74-.86-.18-.71-1.63.17-1.54,3.15.34,6.3.72,9.46,1.19,6,.85,12,1.92,17.92,3.14a98.2,98.2,0,0,1,19.9-5.85c.59.16,1.19.34,1.77.55a190.56,190.56,0,0,0-20,5.66c4.18.88,8.35,1.82,12.47,2.87,1.21.32,2.41.67,3.61,1,4.82-1.77,9.74-3.24,14.57-5a3.58,3.58,0,0,1,.66.36c-2.45,1.09-4.93,2.19-7.42,3.21a96.21,96.21,0,0,1,10.38-1.66c.54.29,1.05.58,1.57.9-5.67,1-11.32,2-17,3q2.61.8,5.13,1.65a.3.3,0,0,1,.3,0l.13.12c9.54,3.19,18.93,6.83,28.72,9.14a.17.17,0,0,1-.1.32c-6.36-1.27-12.57-3.06-18.77-4.91a64.88,64.88,0,0,1,10.86,10c-.53.07-1.08.12-1.61.15a82.71,82.71,0,0,0-10.49-10.52l-5.83-1.77a76.24,76.24,0,0,1,11.45,12.57c-.47,0-.94,0-1.4,0-3.87-4.48-7.95-8.72-11.89-13.16-4.1-1.22-8.22-2.4-12.39-3.4-7-1.71-14.1-3-21.2-4.24a96.4,96.4,0,0,1,8.85,8C371.2,458.05,374,460.71,376.66,463.55Z" style="fill:#263238"></path><path d="M310.17,393.92A85,85,0,0,0,318.9,415c1,1.72,2,3.43,3.16,5.15.54.84,1.1,1.67,1.67,2.51,6.07,8.75,13.79,16.82,23.51,20.76a10.8,10.8,0,0,0,1,.42c.79.28,1.18-.68.8-1.24l.05-.34c1.72-12.62-.57-26.27-7.22-37.22-.31-.53-.65-1.06-1-1.57v0c0-.07-.1-.13-.14-.2a76.56,76.56,0,0,0-7-8.89,3.79,3.79,0,0,0-.52-.55c-.71-.83-1.49-1.64-2.27-2.45-.42-.44-.83-.86-1.27-1.28-6.57-6.65-13.91-12.75-20.42-19a.89.89,0,0,0-1.51.6,72.46,72.46,0,0,0,.82,14.44c.07.53.16,1.07.27,1.6.28,1.59.6,3.2,1,4.77C309.94,393,310.05,393.46,310.17,393.92Z" style="fill:#37474f"></path><path d="M322.06,420.18c.54.84,1.1,1.67,1.67,2.51,6.44,3.57,13.11,6.81,19,11.15,1.5,3.22,3,6.41,4.51,9.61,1.31,2.76,2.63,5.52,4,8.24.39.77,1.75.25,1.43-.57-1.14-2.95-2.33-5.9-3.6-8.83-2.39-5.56-5-11.07-7.69-16.48a98.5,98.5,0,0,0,.47-20.74c-.31-.53-.65-1.06-1-1.57a189.49,189.49,0,0,1-.27,20.77c-1.94-3.81-3.93-7.58-6-11.29-.63-1.09-1.28-2.15-1.92-3.22.45-5.12.59-10.25,1.05-15.37a3.79,3.79,0,0,0-.52-.55c-.42,2.66-.84,5.33-1.17,8a93.7,93.7,0,0,0-1.1-10.45c-.42-.44-.83-.86-1.27-1.28.52,5.73,1.05,11.44,1.5,17.18q-1.44-2.3-2.93-4.52a.31.31,0,0,0-.09-.28l-.16-.1c-5.56-8.37-11.51-16.5-16.29-25.36-.11-.16-.38,0-.29.19,2.89,5.8,6.23,11.34,9.63,16.84a65.17,65.17,0,0,0-12.48-7.88c.07.53.16,1.07.27,1.6a82,82,0,0,1,12.89,7.39c1.07,1.72,2.15,3.44,3.22,5.17a75.83,75.83,0,0,0-15.11-7.79c.1.46.21.91.33,1.37,5.33,2.57,10.49,5.4,15.79,8.05,2.25,3.64,4.46,7.32,6.51,11.08,3.48,6.33,6.56,12.84,9.61,19.37A96.31,96.31,0,0,0,332,426C328.79,424,325.48,422,322.06,420.18Z" style="fill:#263238"></path><path d="M99.91,475.71c.56.09,1.11.16,1.66.23a49,49,0,0,0,14.74-.34c.76-.14,1.52-.29,2.26-.47,1-.23,1.91-.48,2.87-.78,10.88-3.22,20.85-10.07,29.06-17.71.53-.47,1-.95,1.56-1.44a.67.67,0,0,0,.19-.27s0,0,.05,0a.22.22,0,0,0,.07-.42s-.11,0-.14-.06a1,1,0,0,0-1-.48,61.49,61.49,0,0,0-31.62-6.22c-.35,0-.7.06-1,.11a58.46,58.46,0,0,0-6.17.9,91.06,91.06,0,0,0-11.82,3.3l-1.13.42c-.78.28-1.58.58-2.39.9l-1.39.57a236.93,236.93,0,0,0-22.54,11l-.33.18a1,1,0,0,0-.5.7.7.7,0,0,0,.45.78,123,123,0,0,0,15.6,6.33c.45.16.92.31,1.37.43A67.59,67.59,0,0,0,99.91,475.71Z" style="fill:#37474f"></path><path d="M119.35,459c6.27-.84,12.55-1.44,18.85-1.84-4.35,2.19-7.73,6.22-11.14,9.59-2.81,2.79-5.68,5.53-8.49,8.34,1-.23,1.91-.48,2.87-.78,1-1,2.09-2.07,3.12-3.11,4.87-4.8,10.07-12,16.71-14.22,3.07-.17,6.15-.28,9.23-.38s6.23-.11,9.34-.13c.73,0,.76-1.22,0-1.27q-3.78-.24-7.58-.33a200.51,200.51,0,0,0-25.46,1.1c-2.33-2.85-4.87-5.51-7.28-8.28-.35,0-.7.06-1,.11a60.28,60.28,0,0,0,7,8.32c-4.1.44-8.21,1-12.29,1.7a1.84,1.84,0,0,1-.35.05c-3.56-2.6-8-4.27-12.36-5.87l-1.13.42c1.48.74,2.93,1.48,4.41,2.18.44.22.9.4,1.36.61-2.7-.73-5.44-1.37-8.16-1.89l-1.39.57a125.22,125.22,0,0,0,14,3.24c.68.3,1.36.63,2,1-12.9,2.25-25.48,5.56-38.52,6.79l-.33.18a1,1,0,0,0-.5.7c9.71.2,19.34-1.68,28.9-3.57a89.11,89.11,0,0,0-7.28,5.81c-1.83,1.57-3.78,3.17-5.57,4.87.45.16.92.31,1.37.43,1.75-1.7,3.48-3.42,5.31-5,2.69-2.28,5.65-4.29,8.31-6.56,2.75-.54,5.46-1.06,8.17-1.54,2.18-.38,4.33-.71,6.51-1a96.62,96.62,0,0,0-18,16.47c.56.09,1.11.16,1.66.23,2.11-2.3,4.21-4.61,6.47-6.78C111.68,465.64,115.6,462.43,119.35,459Z" style="fill:#263238"></path></g><g id="freepik--coffee-beans--inject-171"><path d="M178.11,452.52c-3.71,5.78-15.72,17.49-37.68,12.17-18.72-4.53-21.56-22.34-19.26-27.05Z" style="fill:#C9B59C"></path><path d="M178.11,452.52c-3.71,5.78-15.72,17.49-37.68,12.17-18.72-4.53-21.56-22.34-19.26-27.05Z" style="opacity:0.8"></path><path d="M178.74,449.1c4.88-4.35-3.45-17.06-22.94-22.28s-32.76,2.64-31.25,7.48a5.75,5.75,0,0,0-3.71,4.7c-.45,3.65,5.45,13.69,26.58,18.93,20.1,5,29.14-3.2,30.69-5.41A4.08,4.08,0,0,0,178.74,449.1Z" style="fill:#C9B59C"></path><g style="opacity:0.7000000000000001"><path d="M178.74,449.1c4.88-4.35-3.45-17.06-22.94-22.28s-32.76,2.64-31.25,7.48a5.75,5.75,0,0,0-3.71,4.7c-.45,3.65,5.45,13.69,26.58,18.93,20.1,5,29.14-3.2,30.69-5.41A4.08,4.08,0,0,0,178.74,449.1Z"></path></g><path d="M178.74,449.1c-4.88,1.17-9.72-.21-14.15-1.67a57.65,57.65,0,0,1-6.45-2.71c-6.27-3.25-11.6-7.73-18.64-10.14a22.29,22.29,0,0,0-15-.28,24.83,24.83,0,0,1,14,1.93c6.49,2.76,11.83,7.36,18.27,10.41a45,45,0,0,0,7,2.49c4.69,1.19,10.25,2.12,14.92,0Z" style="opacity:0.30000000000000004"></path><path d="M177,441.34a19.06,19.06,0,0,0-4-5.1,36.79,36.79,0,0,0-13-7.8l-2.73-.9c-1.16-.3-2.35-.6-3.53-.88s-2.55-.45-3.6-.63c-1.46-.16-2.94-.3-4.41-.41l-3-.06a58.33,58.33,0,0,0-5.9.33c2.78.29,5.83.58,8.6,1a75.32,75.32,0,0,1,13.54,3.36c6.86,2.52,13.23,6.16,17.91,11.11Z" style="fill:#C9B59C;opacity:0.1"></path><path d="M175.88,450.56c-8.88.72-16.53-1.3-23.22-6-6.56-4.16-13.83-9.62-22.6-9.58a32.3,32.3,0,0,1,11.24,4.55c3.41,2.06,6.61,4.38,10,6.58a34.23,34.23,0,0,0,6.91,3.68,29.91,29.91,0,0,0,17.68.8Z" style="fill:#C9B59C;opacity:0.1"></path><path d="M160,470c4.8,5.8,18.92,16.58,39.37,5.79,17.45-9.19,16.66-30.12,13.46-35Z" style="fill:#C9B59C"></path><path d="M160,470c4.8,5.8,18.92,16.58,39.37,5.79,17.45-9.19,16.66-30.12,13.46-35Z" style="opacity:0.8"></path><path d="M158.69,466.25c-5.66-3.91-2.14-18.76,15.92-28.91s34.74-5.47,34.23.38a6.06,6.06,0,0,1,4.58,4.56c1.17,4.07-2.6,16.8-22.26,27.32-18.71,10-29.21,2.6-31.17.42A5.25,5.25,0,0,1,158.69,466.25Z" style="fill:#C9B59C"></path><g style="opacity:0.7000000000000001"><path d="M158.69,466.25c-5.66-3.91-2.14-18.76,15.92-28.91s34.74-5.47,34.23.38a6.06,6.06,0,0,1,4.58,4.56c1.17,4.07-2.6,16.8-22.26,27.32-18.71,10-29.21,2.6-31.17.42A5.25,5.25,0,0,1,158.69,466.25Z"></path></g><path d="M158.69,466.25c5,.29,9.48-2.33,13.54-4.94a58.41,58.41,0,0,0,5.77-4.47c5.5-5.07,9.82-11.32,16.24-15.59,4.19-2.87,9.56-4.54,14.6-3.53a22.39,22.39,0,0,0-13.38,5.22c-5.81,4.55-10.11,10.94-15.82,15.8a44.59,44.59,0,0,1-6.32,4.35c-4.36,2.35-9.63,4.61-14.63,3.16Z" style="opacity:0.30000000000000004"></path><path d="M157.48,459.54a23.72,23.72,0,0,1,2.6-6.72,38.52,38.52,0,0,1,10.5-11.94L173,439.2c1-.63,2.09-1.25,3.13-1.86s2.31-1.12,3.27-1.58c1.34-.55,2.7-1.06,4.06-1.55l2.78-.78a48.76,48.76,0,0,1,5.64-1.07c-2.56,1-5.37,2.08-7.9,3.21a66.52,66.52,0,0,0-12,7.08,49,49,0,0,0-14.43,16.89Z" style="fill:#C9B59C;opacity:0.1"></path><path d="M161.79,467.31a31.83,31.83,0,0,0,21.54-11.87c5.61-6.16,11.63-14,20.24-15.79-4,1.69-7.16,4.55-10.11,7.61s-5.6,6.41-8.47,9.65a35.43,35.43,0,0,1-6,5.68,26.46,26.46,0,0,1-17.16,4.72Z" style="fill:#C9B59C;opacity:0.1"></path><path d="M376.89,455.36c-4,6.36-16.63,18.87-38.3,10.8-18.48-6.87-20.39-27.73-17.85-33Z" style="fill:#C9B59C"></path><path d="M376.89,455.36c-4,6.36-16.63,18.87-38.3,10.8-18.48-6.87-20.39-27.73-17.85-33Z" style="opacity:0.8"></path><path d="M377.7,451.45c5.1-4.6-.29-18.88-19.5-26.62s-35.16-1-33.9,4.78a6.06,6.06,0,0,0-4,5.1c-.63,4.19,4.74,16.33,25.59,24.23,19.84,7.53,29.3-1.17,31-3.58A5.26,5.26,0,0,0,377.7,451.45Z" style="fill:#C9B59C"></path><g style="opacity:0.7000000000000001"><path d="M377.7,451.45c5.1-4.6-.29-18.88-19.5-26.62s-35.16-1-33.9,4.78a6.06,6.06,0,0,0-4,5.1c-.63,4.19,4.74,16.33,25.59,24.23,19.84,7.53,29.3-1.17,31-3.58A5.26,5.26,0,0,0,377.7,451.45Z"></path></g><path d="M377.7,451.45c-4.94.94-9.71-1.09-14.06-3.16a56.41,56.41,0,0,1-6.3-3.69c-6.1-4.32-11.2-10-18.11-13.37-4.53-2.31-10.06-3.28-14.93-1.62a22.36,22.36,0,0,1,13.94,3.45c6.34,3.76,11.43,9.55,17.72,13.64a44.28,44.28,0,0,0,6.82,3.49c4.63,1.78,10.14,3.34,14.92,1.26Z" style="opacity:0.30000000000000004"></path><path d="M378,444.64a24.14,24.14,0,0,0-3.45-6.32,38.24,38.24,0,0,0-11.95-10.5l-2.57-1.36c-1.1-.49-2.23-1-3.34-1.44s-2.44-.82-3.45-1.15c-1.4-.37-2.81-.7-4.22-1l-2.86-.42a47.86,47.86,0,0,0-5.73-.33c2.66.67,5.59,1.36,8.24,2.16a67.1,67.1,0,0,1,12.84,5.47A49,49,0,0,1,378,444.64Z" style="fill:#C9B59C;opacity:0.1"></path><path d="M374.76,452.9a31.83,31.83,0,0,1-22.89-9c-6.35-5.39-13.33-12.35-22.1-13.06,4.16,1.16,7.68,3.59,11,6.25s6.38,5.63,9.65,8.48a35.37,35.37,0,0,0,6.71,4.86,26.5,26.5,0,0,0,17.63,2.47Z" style="fill:#C9B59C;opacity:0.1"></path></g></svg>
